<?xml version="1.0" standalone="no"?>
<!DOCTYPE svg PUBLIC "-//W3C//DTD SVG 1.1//EN" "http://www.w3.org/Graphics/SVG/1.1/DTD/svg11.dtd">
<svg xmlns="http://www.w3.org/2000/svg">
<defs >
<font id="WorkSans" horiz-adv-x="597" ><font-face
    font-family="Work Sans"
    units-per-em="1000"
    panose-1="0 0 0 0 0 0 0 0 0 0"
    ascent="930"
    descent="-243"
    alphabetic="0" />
<glyph unicode=" " horiz-adv-x="286" />
<glyph unicode="!" horiz-adv-x="301" d="M239 660V447L220 215H81L62 447V660H239ZM150 159Q196 159 221 137T247 75Q247 36 222 14T150 -8Q106 -8 80 14T54 75Q54 115 80 137T150 159Z" />
<glyph unicode="&quot;" horiz-adv-x="447" d="M403 678L374 401H261V678H403ZM205 678L176 401H63V678H205Z" />
<glyph unicode="#" horiz-adv-x="688" d="M572 660L465 0H350L456 660H572ZM619 261V159H26V261H619ZM327 660L221 0H105L211 660H327ZM662 501V399H69V501H662Z" />
<glyph unicode="$" horiz-adv-x="641" d="M327 0Q262 0 205 14T100 55T21 115L102 227Q126 194 164 171T248 136T336 124Q389 124 419 140T449 188Q449 209 431 223T369 247L234 279Q180 292 139 314T74 370T50 452Q50 513 83 560T178 633T327 660Q416 660 484
633T603 551L525 450Q484 494 434 516T318 539Q278 539 253 531T216 508T204 475Q204 460 211 448T240 427T304 407L413 383Q508 362 553 322T598 210Q598 142 563 95T467 24T327 0ZM275 -88V748H380V-88H275Z" />
<glyph unicode="%" horiz-adv-x="938" d="M175 0L634 661H764L305 0H175ZM216 670Q273 670 314 647T379 581T402 482Q402 425 379 383T315 318T216 294Q160 294 119 317T54 383T30 482Q30 539 53 581T118 646T216 670ZM216 556Q197 556 184 548T164 523T157 482Q157
459 164 442T184 417T216 408Q236 408 249 416T269 442T276 482Q276 506 269 522T249 547T216 556ZM721 366Q777 366 819 343T884 277T907 178Q907 121 884 79T819 14T721 -10Q665 -10 623 13T558 79T535 178Q535 235 558 277T623 342T721 366ZM721 252Q702 252
689 244T668 219T661 178Q661 155 668 138T688 113T721 104Q741 104 754 112T774 138T781 178Q781 202 774 218T754 243T721 252Z" />
<glyph unicode="&amp;" horiz-adv-x="646" d="M257 -10Q188 -10 136 11T55 72T25 172Q25 199 33 228T63 285T121 333T217 364L248 373Q291 399 314 419T347 459T357 503Q357 529 342 543T299 558Q270 558 254 541T238 496Q238 480 243 465T265 428T313 371T394
280Q444 226 478 191T537 136T587 112T642 109L627 -10Q586 -10 554 -4T489 21T414 79T311 181Q242 253 199 300T133 381T102 442T93 501Q93 543 114 581T181 645T298 670Q365 670 407 648T470 591T491 515Q491 470 470 432T405 366T290 318L259 301Q225 281 206
264T179 229T171 185Q171 160 185 141T223 112T280 101Q327 101 362 116T430 155L444 176Q463 208 474 247T484 339L598 336Q598 272 578 217T517 120L487 96Q454 47 396 19T257 -10Z" />
<glyph unicode="&apos;" horiz-adv-x="250" d="M205 678L176 401H63V678H205Z" />
<glyph unicode="(" horiz-adv-x="391" d="M301 736L381 658Q325 607 289 550T237 426T220 273Q220 188 236 120T289 -5T381 -113L301 -191Q186 -114 127 1T67 273Q67 427 126 543T301 736Z" />
<glyph unicode=")" horiz-adv-x="391" d="M90 -191L10 -113Q67 -62 102 -6T154 119T170 272Q170 357 154 425T103 550T10 658L90 736Q204 659 264 543T324 272Q324 117 264 2T90 -191Z" />
<glyph unicode="*" horiz-adv-x="588" d="M322 502L406 424L489 315L391 244L313 357L266 460L294 481L322 502ZM266 502L294 481L322 460L274 357L196 244L99 315L182 424L266 502ZM76 615L205 570L305 514L294 481L283 448L169 461L39 500L76 615ZM354 730L351
593L329 481H294H259L237 593L233 730H354ZM513 615L550 500L418 461L305 448L294 481L283 514L383 570L513 615Z" />
<glyph unicode="+" horiz-adv-x="604" d="M370 589V60H235V589H370ZM553 386V264H51V386H553Z" />
<glyph unicode="," horiz-adv-x="290" d="M142 172Q179 172 203 155T238 111T250 49Q250 4 231 -37T180 -110T111 -158L42 -107Q70 -96 93 -79T134 -42T161 -1L156 2Q151 -2 143 -4T122 -6Q104 -6 86 3T55 30T42 76Q42 108 56 129T93 161T142 172Z" />
<glyph unicode="-" horiz-adv-x="528" d="M447 337V198H81V337H447Z" />
<glyph unicode="." horiz-adv-x="290" d="M145 172Q192 172 218 148T245 81Q245 39 219 15T145 -9Q99 -9 72 15T45 81Q45 124 72 148T145 172Z" />
<glyph unicode="/" horiz-adv-x="468" d="M453 712L173 -70H15L295 712H453Z" />
<glyph unicode="0" horiz-adv-x="644" d="M322 -10Q187 -10 118 76T48 330Q48 498 117 584T322 670Q457 670 526 584T596 330Q596 162 527 76T322 -10ZM322 124Q359 124 382 144T415 210T426 330Q426 404 416 449T382 515T322 536Q286 536 263 516T229 450T218
330Q218 256 228 211T262 145T322 124Z" />
<glyph unicode="1" horiz-adv-x="431" d="M191 0V380Q191 406 191 433T192 490Q159 460 119 438T35 407L19 549Q45 551 74 562T133 589T185 623T220 660H357V0H191Z" />
<glyph unicode="2" horiz-adv-x="596" d="M60 0V110Q145 163 205 209T302 296T358 374T376 446Q376 484 354 509T287 535Q240 535 214 501T186 400L39 445Q41 519 74 569T166 644T298 670Q363 670 410 652T488 603T532 535T547 458Q547 394 514 339T419 232T267
128V127Q284 128 307 129T355 130T400 131H555V0H60Z" />
<glyph unicode="3" horiz-adv-x="593" d="M301 -10Q195 -10 125 31T27 153L185 221Q190 185 203 164T240 133T294 123Q322 123 341 132T372 160T383 203Q383 229 373 245T343 268T295 275Q282 275 271 275T246 272V384Q254 383 262 383T281 382Q328 382 348 401T369
463Q369 499 349 518T291 537Q252 537 227 517T195 447L44 499Q55 554 91 592T181 650T302 670Q378 670 430 648T509 585T536 489Q536 446 523 417T489 370T447 344T412 333V330Q430 330 453 323T498 301T534 258T549 191Q549 129 517 84T428 15T301 -10Z" />
<glyph unicode="4" horiz-adv-x="646" d="M365 0V145H43V253Q52 269 66 292T101 345L316 660H517V263H618V145H517V0H365ZM181 263H367V463Q367 483 368 504T370 548H368Q358 527 345 505T319 464L202 293Q197 285 192 278T181 263Z" />
<glyph unicode="5" horiz-adv-x="583" d="M286 -10Q200 -10 137 23T30 133L181 208Q192 168 216 144T290 120Q321 120 343 131T377 163T390 216Q390 246 379 266T345 296T290 307Q266 307 247 303T213 290T184 268L54 292L96 660H512V527H221L204 395L201 379H202Q222
402 258 414T338 426Q403 426 449 400T520 329T545 226Q545 165 525 121T468 47T385 4T286 -10Z" />
<glyph unicode="6" horiz-adv-x="616" d="M342 670Q395 670 440 656T520 610T571 524L431 458Q421 493 397 513T331 534Q303 534 280 521T239 482T214 421T205 340Q205 337 205 334T205 324L207 318Q219 348 244 368T303 400T369 411Q430 411 478 387T553 319T581
211Q581 143 550 94T464 17T333 -10Q248 -10 184 27T84 139T48 324Q48 442 87 518T192 632T342 670ZM330 295Q304 295 283 285T249 254T236 207Q236 181 249 161T283 130T330 119Q375 119 399 142T424 207Q424 235 413 254T382 284T330 295Z" />
<glyph unicode="7" horiz-adv-x="608" d="M33 660H576V538Q494 457 447 372T380 194T360 0H190Q190 109 217 207T303 396T455 570L491 525H33V660Z" />
<glyph unicode="8" horiz-adv-x="627" d="M313 668Q388 668 443 646T528 584T559 487Q559 434 533 396T456 338V337Q516 317 549 279T582 180Q582 122 550 80T457 14T313 -10Q230 -10 170 13T78 79T45 180Q45 240 78 278T171 337V338Q121 357 94 395T67 487Q67
543 97 583T184 646T313 668ZM314 543Q274 543 250 523T226 467Q226 432 250 412T314 391Q354 391 377 411T401 467Q401 503 378 523T314 543ZM314 115Q346 115 368 124T403 153T415 197Q415 223 403 241T368 269T314 279Q283 279 260 270T224 242T212 197Q212
172 224 153T259 125T314 115Z" />
<glyph unicode="9" horiz-adv-x="616" d="M293 670Q384 670 445 632T538 518T569 332Q569 212 534 137T436 26T293 -10Q207 -10 144 24T49 134L203 195Q211 160 233 140T296 120Q327 120 350 132T387 169T409 227T416 307Q416 311 416 314T416 323H413Q402 293
377 274T320 246T254 236Q192 236 144 261T68 333T41 442Q41 513 72 563T160 642T293 670ZM293 538Q250 538 225 514T199 446Q199 406 225 384T293 361Q320 361 341 372T375 402T387 449Q387 477 375 496T342 527T293 538Z" />
<glyph unicode=":" horiz-adv-x="302" d="M151 510Q198 510 224 486T251 419Q251 377 225 353T151 329Q105 329 78 353T51 419Q51 462 78 486T151 510ZM151 172Q198 172 224 148T251 81Q251 39 225 15T151 -9Q105 -9 78 15T51 81Q51 124 78 148T151 172Z" />
<glyph unicode=";" horiz-adv-x="302" d="M148 172Q185 172 209 155T244 111T256 49Q256 4 237 -37T186 -110T117 -158L48 -107Q76 -96 99 -79T140 -42T167 -1L162 2Q157 -2 149 -4T128 -6Q110 -6 92 3T61 30T48 76Q48 108 62 129T99 161T148 172ZM151 510Q198
510 224 486T251 419Q251 377 225 353T151 329Q105 329 78 353T51 419Q51 462 78 486T151 510Z" />
<glyph unicode="&lt;" horiz-adv-x="604" d="M553 5L63 223V370L553 588V427L195 297L553 167V5Z" />
<glyph unicode="=" horiz-adv-x="604" d="M539 483V366H65V483H539ZM539 267V150H65V267H539Z" />
<glyph unicode="&gt;" horiz-adv-x="604" d="M51 588L541 370V223L51 5V166L409 296L51 426V588Z" />
<glyph unicode="?" horiz-adv-x="607" d="M308 670Q382 670 440 650T531 588T565 484Q565 422 540 384T471 326T375 300L365 214H215L216 366Q279 372 315 384T367 416T382 461Q382 484 373 500T345 524T296 532Q253 532 228 507T196 431L32 488Q45 540 77 581T166
646T308 670ZM292 159Q337 159 362 137T388 75Q388 36 363 14T292 -8Q248 -8 223 14T197 75Q197 115 222 137T292 159Z" />
<glyph unicode="@" horiz-adv-x="931" d="M466 -185Q374 -185 297 -158T162 -78T73 52T41 229Q41 325 74 405T168 543T309 633T488 665Q577 665 650 638T776 559T857 438T886 281Q886 203 866 148T813 59T741 9T665 -7Q596 -7 561 27T527 117Q505 66 463 37T372
8Q328 8 294 30T240 96T220 198Q220 249 235 296T278 382T346 443T436 465Q465 465 491 455T537 422T564 364L586 456H732L667 171Q664 159 662 149T660 128Q660 101 673 90T707 79Q734 79 757 99T795 163T810 275Q810 348 787 406T721 506T619 569T489 591Q409
591 343 566T229 493T154 378T128 229Q128 144 155 81T229 -25T339 -89T473 -111Q544 -111 589 -94T669 -54L706 -116Q677 -135 644 -150T568 -175T466 -185ZM438 117Q468 117 490 141T525 202T538 276Q538 301 530 318T507 345T470 355Q445 355 426 341T393 304T372
254T365 202Q365 175 373 156T398 127T438 117Z" />
<glyph unicode="A" horiz-adv-x="677" d="M673 0H496L450 149H224L177 0H4L236 660H442L673 0ZM256 266H418L337 533L256 266Z" />
<glyph unicode="B" horiz-adv-x="684" d="M73 0V660H394Q516 659 574 614T632 482Q632 426 599 386T498 334V333Q574 323 611 281T649 178Q649 93 589 47T409 0H73ZM239 121H380Q427 121 450 140T473 195Q473 230 450 248T380 267H239V121ZM239 390H364Q456 390
456 462Q456 534 364 534H239V390Z" />
<glyph unicode="C" horiz-adv-x="681" d="M658 189Q639 120 597 76T497 11T369 -10Q269 -10 196 30T84 147T45 330Q45 437 84 513T196 629T368 670Q437 670 495 651T593 591T650 488L499 427Q485 489 454 512T374 535Q327 535 293 512T240 444T221 330Q221 263
238 217T289 148T375 125Q423 125 456 151T502 233L658 189Z" />
<glyph unicode="D" horiz-adv-x="718" d="M353 660Q508 660 590 574T673 330Q673 172 591 86T353 0H73V660H353ZM336 130Q420 130 458 180T497 330Q497 429 459 479T336 530H245V130H336Z" />
<glyph unicode="E" horiz-adv-x="631" d="M73 0V660H587V527H245V393H517V268H245V133H600V0H73Z" />
<glyph unicode="F" horiz-adv-x="612" d="M586 527H245V387H517V254H245V0H73V660H586V527Z" />
<glyph unicode="G" horiz-adv-x="723" d="M346 -10Q258 -10 190 29T83 144T45 329Q45 436 85 512T199 629T375 670Q487 670 556 630T663 501L504 438Q491 489 458 512T376 535Q327 535 292 512T239 443T221 330Q221 260 239 213T294 144T385 121Q414 121 438 128T480
148T508 182T518 231V241H367V356H664V0H547L534 155L562 131Q541 63 487 27T346 -10Z" />
<glyph unicode="H" horiz-adv-x="742" d="M669 660V0H497V660H669ZM245 660V0H73V660H245ZM589 399V266H157V399H589Z" />
<glyph unicode="I" horiz-adv-x="318" d="M245 660V0H73V660H245Z" />
<glyph unicode="J" horiz-adv-x="618" d="M557 660V254Q557 129 485 60T281 -10Q184 -10 125 24T44 120T35 261L203 291Q191 200 211 163T287 125Q341 125 363 161T385 272V660H557Z" />
<glyph unicode="K" horiz-adv-x="693" d="M672 660L362 289L351 315L194 124L161 263L481 660H672ZM245 660V0H73V660H245ZM418 442L684 0H489L289 346L418 442Z" />
<glyph unicode="L" horiz-adv-x="602" d="M245 133H576V0H73V660H245V133Z" />
<glyph unicode="M" horiz-adv-x="910" d="M837 660V0H685V303L690 506H688L525 0H386L223 506H221L226 303V0H73V660H318L422 324L459 184H461L499 323L602 660H837Z" />
<glyph unicode="N" horiz-adv-x="741" d="M668 660V0H477L272 357L222 455H221L225 333V0H73V660H264L469 303L519 205H520L516 327V660H668Z" />
<glyph unicode="O" horiz-adv-x="737" d="M369 670Q469 670 541 630T653 513T692 330Q692 223 653 147T542 31T369 -10Q269 -10 196 30T84 147T45 330Q45 437 84 513T196 629T369 670ZM369 535Q321 535 288 512T238 444T221 330Q221 263 238 217T288 148T369 125Q417
125 449 148T499 217T516 330Q516 398 499 443T450 512T369 535Z" />
<glyph unicode="P" horiz-adv-x="668" d="M376 660Q457 660 514 634T601 559T631 440Q631 370 601 321T514 246T376 220H245V0H73V660H376ZM349 349Q403 349 430 371T458 440Q458 486 431 508T349 531H245V349H349Z" />
<glyph unicode="Q" horiz-adv-x="737" d="M536 -203Q470 -203 420 -181T342 -117T314 -13Q314 7 319 29T337 72L437 95Q427 73 422 55T417 22Q417 -17 433 -38T476 -68T537 -77Q580 -77 609 -68T658 -43L684 -162Q658 -182 617 -192T536 -203ZM369 670Q469 670
541 630T653 513T692 330Q692 223 653 147T542 31T369 -10Q269 -10 196 30T84 147T45 330Q45 437 84 513T196 629T369 670ZM369 535Q321 535 288 512T238 444T221 330Q221 263 238 217T288 148T369 125Q417 125 449 148T499 217T516 330Q516 398 499 443T450 512T369
535Z" />
<glyph unicode="R" horiz-adv-x="689" d="M388 660Q506 660 571 605T637 457Q637 356 572 303T389 250L373 241H242V0H73V660H388ZM364 363Q414 363 439 383T464 447Q464 490 439 510T364 530H242V363H364ZM465 327L676 0H486L317 289L465 327Z" />
<glyph unicode="S" horiz-adv-x="645" d="M331 670Q423 670 493 642T616 558L533 447Q490 492 441 514T328 537Q291 537 268 529T235 507T225 475Q225 454 244 440T308 415L419 390Q518 367 564 323T610 206Q610 136 574 88T475 15T331 -10Q265 -10 205 4T97 46T16
108L99 223Q124 194 160 172T240 136T329 123Q364 123 387 130T422 151T433 184Q433 205 418 219T361 244L239 271Q183 284 140 305T71 363T46 455Q46 517 80 565T178 642T331 670Z" />
<glyph unicode="T" horiz-adv-x="653" d="M628 660V527H413V0H241V527H25V660H628Z" />
<glyph unicode="U" horiz-adv-x="710" d="M650 660V269Q650 129 576 60T355 -10Q210 -10 135 59T60 269V660H233V266Q233 195 263 160T355 125Q417 125 447 160T478 266V660H650Z" />
<glyph unicode="V" horiz-adv-x="683" d="M677 660L443 0H241L6 660H187L308 261L344 131L379 259L502 660H677Z" />
<glyph unicode="W" horiz-adv-x="997" d="M200 0L10 660H193L305 139L423 660H579L700 140L810 660H987L796 0H609L531 320L501 481H499L470 320L393 0H200Z" />
<glyph unicode="X" horiz-adv-x="663" d="M655 0H450L326 211L206 0H11L235 332L24 660H227L340 458L454 660H641L430 337L655 0Z" />
<glyph unicode="Y" horiz-adv-x="657" d="M647 660L414 241V0H242V241L9 660H187L280 479L329 369L379 479L472 660H647Z" />
<glyph unicode="Z" horiz-adv-x="634" d="M172 72L142 130H603V0H37V124L458 588L488 530H44V660H591V536L172 72Z" />
<glyph unicode="[" horiz-adv-x="391" d="M365 594H232V-49H365V-168H85V713H365V594Z" />
<glyph unicode="\" horiz-adv-x="468" d="M15 712H173L453 -70H295L15 712Z" />
<glyph unicode="]" horiz-adv-x="391" d="M26 -49H159V594H26V713H306V-168H26V-49Z" />
<glyph unicode="^" horiz-adv-x="612" d="M25 355L234 724H378L588 355H438L306 612L175 355H25Z" />
<glyph unicode="_" horiz-adv-x="539" d="M539 -66V-201H0V-66H539Z" />
<glyph unicode="`" horiz-adv-x="500" d="M296 738L363 565H239L138 738H296Z" />
<glyph unicode="a" horiz-adv-x="579" d="M340 317Q340 352 321 372T268 393Q235 393 212 377T179 318L35 352Q49 424 109 467T278 510Q351 510 402 489T481 425T509 320V137Q509 98 544 98Q562 98 573 102L563 5Q533 -9 490 -9Q451 -9 421 3T374 41T357 106V112L376
119Q376 76 351 47T285 4T200 -10Q149 -10 111 6T53 52T32 128Q32 182 64 217T167 267L356 306L355 216L259 196Q229 190 215 179T200 144Q200 122 216 111T254 100Q271 100 286 105T314 120T333 147T340 185V317Z" />
<glyph unicode="b" horiz-adv-x="627" d="M382 -10Q333 -10 296 12T234 72T203 160L219 181L210 0H61V712H231V343L215 367Q229 429 272 469T388 510Q446 510 491 479T562 390T588 248Q588 167 562 109T490 21T382 -10ZM323 115Q367 115 392 147T417 250Q417 320
392 352T323 385Q294 385 274 369T242 322T231 249Q231 206 242 176T274 131T323 115Z" />
<glyph unicode="c" horiz-adv-x="567" d="M298 510Q374 510 424 489T503 432T539 355L382 303Q375 346 357 367T303 389Q271 389 250 375T217 329T206 248Q206 199 218 169T252 125T304 111Q329 111 345 120T373 148T387 192L540 143Q533 99 503 65T422 10T305
-10Q223 -10 162 20T68 109T35 250Q35 332 68 390T160 479T298 510Z" />
<glyph unicode="d" horiz-adv-x="627" d="M245 -10Q183 -10 137 20T65 109T39 248Q39 332 65 390T139 479T249 510Q317 510 358 469T412 363L396 342V712H566V0H414L403 170L423 155Q417 105 393 68T331 11T245 -10ZM304 115Q333 115 353 130T385 177T396 253Q396
295 386 324T355 369T305 385Q261 385 236 353T210 250Q210 180 235 148T304 115Z" />
<glyph unicode="e" horiz-adv-x="579" d="M305 -10Q222 -10 162 21T68 110T35 250Q35 332 68 390T160 479T297 510Q376 510 431 480T516 396T545 273Q545 255 544 237T541 207H145V298H466L385 267Q385 327 364 359T297 391Q265 391 243 376T209 329T197 247Q197
198 210 168T247 124T305 110Q343 110 365 125T399 167L535 122Q521 79 487 50T405 5T305 -10Z" />
<glyph unicode="f" horiz-adv-x="415" d="M294 726Q335 726 366 718T412 698L395 592Q384 599 370 603T335 607Q300 607 278 591T255 535V470L265 442V0H95V546Q95 594 110 628T154 684T218 716T294 726ZM407 500V379H15V500H407Z" />
<glyph unicode="g" horiz-adv-x="560" d="M545 634L559 520Q553 522 547 522T535 523Q491 523 470 502T448 448L388 470Q388 511 403 549T449 611T529 635Q532 635 536 635T545 634ZM373 111Q460 111 506 75T553 -30Q553 -92 519 -133T424 -194T278 -215Q142 -215
82 -181T22 -89Q22 -47 56 -21T169 7L165 -9Q104 -1 74 27T44 103Q44 151 82 181T183 214L245 185H229Q190 183 174 172T158 145Q158 128 172 120T214 111H373ZM279 -105Q327 -105 358 -99T406 -81T422 -54Q422 -39 411 -31T371 -22H192Q173 -22 162 -32T150 -57Q150
-80 184 -92T279 -105ZM285 510Q361 510 415 490T497 433T526 340Q526 286 498 248T415 191T285 171Q166 171 105 215T43 340Q43 395 71 432T154 490T285 510ZM285 413Q252 413 232 394T211 340Q211 306 231 287T285 268Q317 268 338 287T359 340Q359 375 338 394T285
413Z" />
<glyph unicode="h" horiz-adv-x="620" d="M61 0V712H231V409Q253 459 294 484T389 510Q441 510 479 490T540 431T562 333V0H392V286Q392 340 373 360T321 381Q297 381 276 369T243 331T231 263V0H61Z" />
<glyph unicode="i" horiz-adv-x="291" d="M146 558Q94 558 71 577T47 639Q47 682 70 701T146 721Q197 721 221 702T245 639Q245 597 221 578T146 558ZM231 500V0H61V500H231Z" />
<glyph unicode="j" horiz-adv-x="291" d="M146 558Q94 558 71 577T47 639Q47 682 70 701T146 721Q197 721 221 702T245 639Q245 597 221 578T146 558ZM231 500V-28Q231 -96 208 -137T141 -196T37 -215Q-3 -215 -36 -207T-94 -183L-70 -73Q-59 -81 -43 -86T-6 -92Q24
-92 42 -75T61 -13V500H231Z" />
<glyph unicode="k" horiz-adv-x="622" d="M610 500L370 244L338 235L195 75L194 249L421 500H610ZM231 712V0H61V712H231ZM396 350L621 0H433L285 250L396 350Z" />
<glyph unicode="l" horiz-adv-x="327" d="M229 712V170Q229 137 240 123T277 109Q292 109 302 111T326 117L315 15Q297 4 268 -3T211 -10Q131 -10 95 27T59 148V712H229Z" />
<glyph unicode="m" horiz-adv-x="941" d="M61 0V500H213L218 403Q242 456 285 483T386 510Q442 510 483 485T544 411Q560 444 585 466T644 499T712 510Q762 510 800 491T860 432T883 333V0H713V294Q713 342 695 361T645 380Q620 380 600 368T568 330T557 267V0H387V294Q387
342 368 361T319 380Q296 380 276 368T243 331T231 264V0H61Z" />
<glyph unicode="n" horiz-adv-x="620" d="M61 0V500H213L222 328L203 347Q213 401 238 437T302 491T389 510Q441 510 479 490T540 431T562 333V0H392V288Q392 340 372 360T321 380Q297 380 276 369T243 332T231 265V0H61Z" />
<glyph unicode="o" horiz-adv-x="599" d="M299 510Q378 510 437 480T530 391T564 250Q564 168 531 110T438 21T299 -10Q222 -10 162 20T69 109T35 250Q35 332 68 390T162 479T299 510ZM299 389Q270 389 249 375T217 330T206 250Q206 201 217 171T249 126T299 111Q329
111 350 125T382 170T393 250Q393 299 382 330T350 375T299 389Z" />
<glyph unicode="p" horiz-adv-x="627" d="M61 -210V500H214L223 319L203 340Q210 390 234 428T296 488T383 510Q445 510 491 480T562 392T588 252Q588 170 562 111T490 21T381 -10Q313 -10 271 30T215 133L231 157V-210H61ZM323 115Q367 115 392 147T417 250Q417
320 393 352T324 385Q296 385 275 370T243 324T231 250Q231 208 241 178T273 131T323 115Z" />
<glyph unicode="q" horiz-adv-x="627" d="M396 -210V167L414 145Q408 99 385 64T327 10T245 -10Q184 -10 138 21T65 111T39 252Q39 334 65 391T139 479T248 510Q297 510 334 488T395 427T424 337L404 321L413 500H566V-210H396ZM304 115Q333 115 353 131T385 177T396
251Q396 296 385 325T354 370T305 385Q261 385 236 353T210 250Q210 180 235 148T304 115Z" />
<glyph unicode="r" horiz-adv-x="430" d="M61 0V500H211L218 392Q237 448 274 479T370 510Q389 510 402 507T424 499L407 359Q397 363 382 365T344 368Q314 368 288 355T247 317T231 252V0H61Z" />
<glyph unicode="s" horiz-adv-x="533" d="M271 -10Q196 -10 132 14T25 85L105 179Q130 147 171 126T264 104Q295 104 315 113T335 141Q335 155 325 163T285 178L215 192Q121 211 82 248T42 347Q42 388 67 425T144 486T277 510Q353 510 411 488T503 424L422 332Q398
362 360 379T284 396Q260 396 244 392T219 379T211 359Q211 346 223 337T270 320L361 302Q438 288 472 251T506 162Q506 113 480 74T402 13T271 -10Z" />
<glyph unicode="t" horiz-adv-x="437" d="M270 659V178Q270 142 287 127T336 111Q360 111 377 116T409 133L427 28Q402 10 364 0T286 -10Q229 -10 188 6T124 57T100 150V612L270 659ZM419 500V379H14V500H419Z" />
<glyph unicode="u" horiz-adv-x="619" d="M230 -10Q179 -10 141 7T80 64T58 166V500H228V206Q228 158 247 139T301 120Q319 120 335 126T363 146T381 181T388 232V500H558V0H406L401 94Q377 41 334 16T230 -10Z" />
<glyph unicode="v" horiz-adv-x="561" d="M386 500H562L382 0H179L-1 500H178L281 119L386 500Z" />
<glyph unicode="w" horiz-adv-x="900" d="M716 500H894L743 0H539L448 307L360 0H157L5 500H184L268 131L366 500H534L631 131L716 500Z" />
<glyph unicode="x" horiz-adv-x="589" d="M208 500L330 275L386 280L583 0H388L262 228H203L12 500H208ZM579 500L390 230L327 234L196 0H5L206 282L264 274L388 500H579Z" />
<glyph unicode="y" horiz-adv-x="563" d="M564 500L382 0Q354 -79 321 -126T243 -194T135 -215Q93 -215 58 -206T-3 -181L31 -66Q49 -79 69 -84T120 -90Q149 -90 167 -80T197 -42L210 -11L152 125L2 500H189L266 215L290 109L318 219L395 500H564Z" />
<glyph unicode="z" horiz-adv-x="516" d="M35 0V104L234 330L287 383L208 381H37V500H475V396L279 172L224 117L312 119H484V0H35Z" />
<glyph unicode="{" horiz-adv-x="420" d="M393 -191Q307 -191 254 -175T177 -120T153 -21V113Q153 169 128 193T41 217V327Q102 327 127 351T153 431V566Q153 628 177 665T254 719T393 736V628Q338 628 314 609T289 547V396Q289 346 265 316T192 273Q240 259 264
229T289 149V-1Q289 -45 313 -64T393 -83V-191Z" />
<glyph unicode="|" horiz-adv-x="320" d="M235 713V-168H85V713H235Z" />
<glyph unicode="}" horiz-adv-x="420" d="M27 736Q113 736 166 719T243 665T267 566V431Q267 375 292 351T379 327V217Q318 217 293 193T267 113V-22Q267 -83 243 -120T166 -174T27 -191V-83Q82 -83 106 -64T131 -2V149Q131 199 156 229T228 272Q181 286 156 316T131
396V546Q131 589 107 608T27 628V736Z" />
<glyph unicode="~" d="M554 425Q549 330 509 281T393 231Q358 231 334 240T291 263T258 285T223 295Q202 295 191 280T175 236H43Q48 331 88 380T204 430Q239 430 263 421T306 398T340 376T374 366Q395 366 406 380T422 425H554Z" />
<glyph unicode="&#xa0;" horiz-adv-x="286" />
<glyph unicode="&#xa1;" horiz-adv-x="298" d="M61 -160V53L80 285H219L238 53V-160H61ZM149 341Q105 341 79 363T53 425Q53 464 79 486T149 508Q195 508 220 486T246 425Q246 385 221 363T149 341Z" />
<glyph unicode="&#xa2;" horiz-adv-x="575" d="M314 -10Q229 -10 168 20T75 109T42 250Q42 332 74 390T167 479T308 510Q383 510 432 489T508 433T546 355L419 309Q410 355 384 379T315 404Q258 404 224 368T190 248Q190 193 206 160T251 111T315 96Q346 96 367
106T403 137T423 187L548 144Q538 98 508 64T428 10T314 -10ZM256 -100V600H361V-100H256Z" />
<glyph unicode="&#xa3;" horiz-adv-x="621" d="M52 270V348H483V270H52ZM152 -10Q101 -10 67 14T32 83Q32 113 49 133T95 165T160 176Q203 176 234 169T288 152T332 130T373 112T423 105Q457 105 473 125T488 188L596 176Q602 120 586 79T536 14T454 -10Q412 -10
380 2T320 32T267 68T215 99T157 111Q137 111 127 104T116 83Q116 69 127 62T156 54Q182 54 196 66T215 102T221 160Q221 203 206 238T158 324Q138 357 126 381T109 429T104 476Q104 531 133 575T215 644T342 670Q436 670 494 627T572 495L435 442Q423 496 400
521T335 547Q297 547 273 526T248 467Q248 453 252 439T265 405T288 358Q310 319 323 279T337 201Q337 162 326 125T291 57T234 8T152 -10Z" />
<glyph unicode="&#xa4;" horiz-adv-x="646" d="M324 537Q387 537 434 511T509 438T536 330Q536 268 509 221T435 148T324 121Q261 121 213 147T137 221T110 330Q110 391 137 437T212 510T324 537ZM324 417Q286 417 263 393T240 330Q240 290 263 266T324 242Q361
242 384 266T407 330Q407 369 384 393T324 417ZM134 616L265 469L184 388L36 518L134 616ZM183 271L264 190L134 43L36 140L183 271ZM466 267L610 140L512 43L384 185L466 267ZM512 616L610 518L468 389L385 472L512 616Z" />
<glyph unicode="&#xa5;" horiz-adv-x="666" d="M251 0V121H60V179H251V245H60V305H177L237 301L19 660H195L289 463L332 361H334L378 464L471 660H647L429 301L489 305H607V245H415V179H607V121H415V0H251Z" />
<glyph unicode="&#xa6;" horiz-adv-x="320" d="M235 713V333H85V713H235ZM235 212V-168H85V212H235Z" />
<glyph unicode="&#xa7;" horiz-adv-x="623" d="M422 99L363 181Q403 187 428 195T465 217T477 248Q477 271 458 284T402 305L230 337Q184 346 152 367T102 420T85 487Q85 542 114 583T196 647T321 670Q402 670 456 646T552 573L462 493Q434 527 396 544T313 561Q262
561 239 546T215 506Q215 492 222 482T251 463T311 446L410 428Q477 416 518 396T578 346T597 277Q597 227 576 190T515 131T422 99ZM304 -110Q220 -110 154 -84T51 -12L140 70Q164 36 209 17T307 -3Q353 -3 383 10T413 51Q413 70 396 80T336 99L184 131Q130 142
95 162T41 213T23 288Q23 337 45 369T104 421T189 451L242 370Q208 362 186 353T154 333T143 305Q143 282 163 268T227 246L382 217Q461 202 499 166T538 67Q538 12 510 -28T430 -89T304 -110Z" />
<glyph unicode="&#xa8;" horiz-adv-x="500" d="M139 710Q180 710 202 690T225 633Q225 597 203 577T139 556Q100 556 78 576T55 633Q55 670 77 690T139 710ZM359 710Q399 710 422 690T445 633Q445 597 422 577T359 556Q320 556 298 576T275 633Q275 670 297 690T359 710Z" />
<glyph unicode="&#xa9;" horiz-adv-x="772" d="M386 -10Q286 -10 208 33T86 153T42 330Q42 431 86 507T208 626T386 670Q487 670 564 627T686 507T730 330Q730 230 686 154T565 34T386 -10ZM386 74Q463 74 520 106T610 197T643 330Q643 405 611 463T521 553T386
586Q310 586 252 554T162 463T129 330Q129 255 161 197T252 107T386 74ZM392 138Q301 138 251 190T201 329Q201 417 251 468T392 520Q460 520 503 490T565 410L466 363Q456 386 439 395T397 404Q363 404 343 385T323 329Q323 293 343 274T397 254Q422 254 441 263T470
299L564 254Q540 194 500 166T392 138Z" />
<glyph unicode="&#xaa;" horiz-adv-x="438" d="M141 306Q86 306 56 331T26 397Q26 441 53 463T142 497L252 519V468L191 453Q168 448 158 438T147 412Q147 397 157 389T184 381Q197 381 210 386T231 402T239 434V529Q239 552 227 564T193 577Q172 577 155 566T131
525L29 549Q37 600 80 631T197 662Q281 662 323 629T365 527V412Q365 396 372 389T392 382Q406 382 412 385L403 318Q392 312 379 309T347 306Q306 306 282 327T257 390V409L273 404Q269 378 252 356T207 320T141 306ZM34 151V240H399V151H34Z" />
<glyph unicode="&#xab;" horiz-adv-x="585" d="M308 461L187 265L308 69H160L35 265L160 461H308ZM550 461L429 265L550 69H402L277 265L402 461H550Z" />
<glyph unicode="&#xac;" horiz-adv-x="604" d="M544 314V97H407V314H544ZM544 386V264H60V386H544Z" />
<glyph unicode="&#xad;" horiz-adv-x="528" d="M447 337V198H81V337H447Z" />
<glyph unicode="&#xae;" horiz-adv-x="772" d="M386 -10Q286 -10 208 33T86 153T42 330Q42 431 86 507T208 626T386 670Q487 670 564 627T686 507T730 330Q730 230 686 154T565 34T386 -10ZM432 151L357 295L444 318L553 151H432ZM386 74Q463 74 520 106T610 197T643
330Q643 405 611 463T521 553T386 586Q310 586 252 554T162 463T129 330Q129 255 161 197T252 107T386 74ZM238 151V515H414Q452 515 481 500T527 458T545 396Q545 339 506 308T402 276H340V151H238ZM340 345H390Q414 345 428 355T442 388Q442 412 428 421T390
431H340V345Z" />
<glyph unicode="&#xaf;" horiz-adv-x="500" d="M432 674V569H68V674H432Z" />
<glyph unicode="&#xb0;" horiz-adv-x="495" d="M248 298Q186 298 141 321T71 386T46 484Q46 540 71 582T141 647T248 670Q310 670 355 647T425 582T450 484Q450 428 425 386T355 321T248 298ZM248 407Q283 407 304 429T326 485Q326 519 305 540T248 562Q213 562
191 541T169 485Q169 451 191 429T248 407Z" />
<glyph unicode="&#xb1;" horiz-adv-x="604" d="M364 652V185H241V652H364ZM553 477V360H51V477H553ZM553 115V1H51V115H553Z" />
<glyph unicode="&#xb2;" horiz-adv-x="392" d="M29 333V410Q53 424 75 436T118 462Q160 491 186 514T223 557T235 595Q235 616 224 628T188 640Q161 640 148 621T134 564L15 589Q17 656 64 695T191 735Q254 735 292 716T347 667T365 605Q365 580 354 557T322 511T268
466Q251 455 232 446T191 428V426Q206 428 233 429T282 430H370V333H29Z" />
<glyph unicode="&#xb3;" horiz-adv-x="379" d="M194 735Q266 735 306 706T347 622Q347 596 337 576T307 546T263 533V530Q292 530 312 520T344 492T355 445Q355 410 332 383T270 342T180 327Q108 327 66 355T9 434L123 469Q126 442 141 429T183 416Q207 416 220
427T233 459Q233 480 219 488T177 496Q173 496 169 496T160 495V560Q164 559 168 559T175 559Q200 559 213 569T226 600Q226 621 215 631T182 641Q160 641 146 629T128 591L19 623Q29 678 76 706T194 735Z" />
<glyph unicode="&#xb4;" horiz-adv-x="540" d="M225 738H383L282 565H158L225 738Z" />
<glyph unicode="&#xb5;" horiz-adv-x="621" d="M61 -210V500H231V209Q231 161 249 141T303 120Q329 120 348 132T379 170T391 238V500H561V0H411L405 91Q384 41 347 16T261 -9Q240 -9 221 -4T187 13L231 75V-210H61Z" />
<glyph unicode="&#xb6;" horiz-adv-x="748" d="M297 -100V177Q222 178 163 205T69 286T34 418Q34 497 70 551T170 632T318 660H682V-100H544V530H436V-100H297ZM294 307V530Q254 530 227 517T185 478T170 419Q170 384 184 359T226 321T294 307Z" />
<glyph unicode="&#xb7;" horiz-adv-x="274" d="M137 444Q184 444 210 420T237 353Q237 311 211 287T137 263Q91 263 64 287T37 353Q37 396 64 420T137 444Z" />
<glyph unicode="&#xb8;" horiz-adv-x="500" d="M178 10L219 37Q297 26 334 -5T371 -90Q371 -146 334 -180T231 -215Q192 -215 169 -207T128 -186L156 -105Q168 -112 182 -117T216 -123Q242 -123 258 -108T274 -66Q274 -43 253 -25T178 10Z" />
<glyph unicode="&#xb9;" horiz-adv-x="298" d="M152 730H256V333H133V549Q133 561 134 578T136 614Q112 596 83 583T19 565V666Q41 669 67 679T117 702T152 730Z" />
<glyph unicode="&#xba;" horiz-adv-x="422" d="M211 306Q129 306 80 353T30 484Q30 568 79 615T211 662Q294 662 343 615T393 484Q393 400 344 353T211 306ZM36 151V240H386V151H36ZM211 388Q241 388 253 411T266 484Q266 534 254 557T211 580Q182 580 169 557T156
484Q156 434 169 411T211 388Z" />
<glyph unicode="&#xbb;" horiz-adv-x="585" d="M278 69L398 265L278 461H425L551 265L425 69H278ZM35 69L156 265L35 461H183L308 265L183 69H35Z" />
<glyph unicode="&#xbc;" horiz-adv-x="872" d="M152 921H256V524H133V740Q133 752 134 769T136 805Q112 787 83 774T19 756V857Q41 860 67 870T117 893T152 921ZM125 0L602 661H722L245 0H125ZM858 162V81H797V-4H690V81H489V137L651 394H797V162H858ZM595 162H690V240Q690
260 691 281T693 320H690Q684 307 676 291T660 261L595 162Z" />
<glyph unicode="&#xbd;" horiz-adv-x="941" d="M152 921H256V524H133V740Q133 752 134 769T136 805Q112 787 83 774T19 756V857Q41 860 67 870T117 893T152 921ZM125 0L602 661H722L245 0H125ZM578 -4V73Q602 87 624 99T667 125Q709 154 735 177T772 220T784 258Q784
279 773 291T737 303Q710 303 697 284T683 227L564 252Q566 319 613 358T740 398Q803 398 841 379T896 330T914 268Q914 243 903 220T871 174T817 129Q800 118 781 109T740 91V89Q755 91 782 92T831 93H919V-4H578Z" />
<glyph unicode="&#xbe;" horiz-adv-x="954" d="M194 926Q266 926 306 897T347 813Q347 787 337 767T307 737T263 724V721Q292 721 312 711T344 683T355 636Q355 601 332 574T270 533T180 518Q108 518 66 546T9 625L123 660Q126 633 141 620T183 607Q207 607 220
618T233 650Q233 671 219 679T177 687Q173 687 169 687T160 686V751Q164 750 168 750T175 750Q200 750 213 760T226 791Q226 812 215 822T182 832Q160 832 146 820T128 782L19 814Q29 869 76 897T194 926ZM206 0L683 661H803L326 0H206ZM940 162V81H879V-4H772V81H571V137L733
394H879V162H940ZM677 162H772V240Q772 260 773 281T775 320H772Q766 307 758 291T742 261L677 162Z" />
<glyph unicode="&#xbf;" horiz-adv-x="605" d="M298 -169Q224 -169 166 -149T75 -87T41 17Q41 79 67 117T136 176T231 201L242 287H391V134Q327 129 291 117T240 85T225 40Q225 17 234 1T262 -23T310 -31Q354 -31 379 -6T410 69L574 13Q562 -40 529 -81T440 -145T298
-169ZM314 342Q269 342 244 364T218 425Q218 464 243 486T314 509Q359 509 384 487T410 425Q410 386 385 364T314 342Z" />
<glyph unicode="&#xc0;" horiz-adv-x="677" d="M673 0H496L450 149H224L177 0H4L236 660H442L673 0ZM256 266H418L337 533L256 266ZM347 886L408 723H284L195 886H347Z" />
<glyph unicode="&#xc1;" horiz-adv-x="677" d="M673 0H496L450 149H224L177 0H4L236 660H442L673 0ZM256 266H418L337 533L256 266ZM327 886H479L390 723H266L327 886Z" />
<glyph unicode="&#xc2;" horiz-adv-x="677" d="M673 0H496L450 149H224L177 0H4L236 660H442L673 0ZM256 266H418L337 533L256 266ZM521 723H403L338 815L273 723H155L255 886H421L521 723Z" />
<glyph unicode="&#xc3;" horiz-adv-x="677" d="M673 0H496L450 149H224L177 0H4L236 660H442L673 0ZM256 266H418L337 533L256 266ZM536 878Q534 825 518 790T474 737T413 719Q385 719 365 727T329 747T301 767T273 776Q256 776 247 762T235 720H139Q142 800 178
839T270 879Q297 879 316 871T349 851T375 831T402 822Q420 822 428 836T440 878H536Z" />
<glyph unicode="&#xc4;" horiz-adv-x="677" d="M673 0H496L450 149H224L177 0H4L236 660H442L673 0ZM256 266H418L337 533L256 266ZM227 870Q268 870 290 850T313 793Q313 757 291 737T227 716Q188 716 166 736T143 793Q143 830 165 850T227 870ZM447 870Q487
870 510 850T533 793Q533 757 510 737T447 716Q408 716 386 736T363 793Q363 830 385 850T447 870Z" />
<glyph unicode="&#xc5;" horiz-adv-x="677" d="M673 0H496L450 149H224L177 0H4L236 660H442L673 0ZM256 266H418L337 533L256 266ZM338 842Q401 842 439 808T477 717Q477 659 439 625T338 591Q275 591 237 625T198 717Q198 774 236 808T338 842ZM338 769Q314
769 299 755T284 717Q284 693 299 679T338 664Q362 664 376 678T391 717Q391 741 377 755T338 769Z" />
<glyph unicode="&#xc6;" horiz-adv-x="924" d="M581 127H894V0H421V196H246L169 0H-4L279 660H880V533H581V391H810V271H581V127ZM283 308H421V538H379L283 308Z" />
<glyph unicode="&#xc7;" horiz-adv-x="681" d="M658 189Q639 120 597 76T497 11T369 -10Q269 -10 196 30T84 147T45 330Q45 437 84 513T196 629T368 670Q437 670 495 651T593 591T650 488L499 427Q485 489 454 512T374 535Q327 535 293 512T240 444T221 330Q221
263 238 217T289 148T375 125Q423 125 456 151T502 233L658 189ZM283 10L324 37Q402 26 439 -5T476 -90Q476 -146 439 -180T336 -215Q297 -215 274 -207T233 -186L261 -105Q273 -112 287 -117T321 -123Q347 -123 363 -108T379 -66Q379 -43 358 -25T283 10Z" />
<glyph unicode="&#xc8;" horiz-adv-x="631" d="M73 0V660H587V527H245V393H517V268H245V133H600V0H73ZM341 886L402 723H278L189 886H341Z" />
<glyph unicode="&#xc9;" horiz-adv-x="631" d="M73 0V660H587V527H245V393H517V268H245V133H600V0H73ZM313 886H465L376 723H252L313 886Z" />
<glyph unicode="&#xca;" horiz-adv-x="631" d="M73 0V660H587V527H245V393H517V268H245V133H600V0H73ZM513 723H395L330 815L265 723H147L247 886H413L513 723Z" />
<glyph unicode="&#xcb;" horiz-adv-x="631" d="M73 0V660H587V527H245V393H517V268H245V133H600V0H73ZM219 870Q260 870 282 850T305 793Q305 757 283 737T219 716Q180 716 158 736T135 793Q135 830 157 850T219 870ZM439 870Q479 870 502 850T525 793Q525 757
502 737T439 716Q400 716 378 736T355 793Q355 830 377 850T439 870Z" />
<glyph unicode="&#xcc;" horiz-adv-x="318" d="M245 660V0H73V660H245ZM166 886L227 723H103L14 886H166Z" />
<glyph unicode="&#xcd;" horiz-adv-x="318" d="M245 660V0H73V660H245ZM152 886H304L215 723H91L152 886Z" />
<glyph unicode="&#xce;" horiz-adv-x="318" d="M245 660V0H73V660H245ZM342 723H224L159 815L94 723H-24L76 886H242L342 723Z" />
<glyph unicode="&#xcf;" horiz-adv-x="318" d="M56 870Q95 870 117 850T140 793Q140 757 118 737T56 716Q18 716 -4 736T-26 793Q-26 830 -4 850T56 870ZM260 870Q299 870 321 850T344 793Q344 757 322 737T260 716Q222 716 200 736T178 793Q178 830 200 850T260
870ZM245 660V0H73V660H245Z" />
<glyph unicode="&#xd0;" horiz-adv-x="741" d="M13 270V390H399V270H13ZM376 660Q531 660 614 574T697 330Q697 172 614 86T376 0H96V660H376ZM359 130Q444 130 482 180T520 330Q520 429 482 479T359 530H268V130H359Z" />
<glyph unicode="&#xd1;" horiz-adv-x="741" d="M668 660V0H477L272 357L222 455H221L225 333V0H73V660H264L469 303L519 205H520L516 327V660H668ZM570 878Q568 825 552 790T508 737T447 719Q419 719 399 727T363 747T335 767T307 776Q290 776 281 762T269 720H173Q176
800 212 839T304 879Q331 879 350 871T383 851T409 831T436 822Q454 822 462 836T474 878H570Z" />
<glyph unicode="&#xd2;" horiz-adv-x="737" d="M369 670Q469 670 541 630T653 513T692 330Q692 223 653 147T542 31T369 -10Q269 -10 196 30T84 147T45 330Q45 437 84 513T196 629T369 670ZM369 535Q321 535 288 512T238 444T221 330Q221 263 238 217T288 148T369
125Q417 125 449 148T499 217T516 330Q516 398 499 443T450 512T369 535ZM376 886L437 723H313L224 886H376Z" />
<glyph unicode="&#xd3;" horiz-adv-x="737" d="M369 670Q469 670 541 630T653 513T692 330Q692 223 653 147T542 31T369 -10Q269 -10 196 30T84 147T45 330Q45 437 84 513T196 629T369 670ZM369 535Q321 535 288 512T238 444T221 330Q221 263 238 217T288 148T369
125Q417 125 449 148T499 217T516 330Q516 398 499 443T450 512T369 535ZM358 886H510L421 723H297L358 886Z" />
<glyph unicode="&#xd4;" horiz-adv-x="737" d="M369 670Q469 670 541 630T653 513T692 330Q692 223 653 147T542 31T369 -10Q269 -10 196 30T84 147T45 330Q45 437 84 513T196 629T369 670ZM369 535Q321 535 288 512T238 444T221 330Q221 263 238 217T288 148T369
125Q417 125 449 148T499 217T516 330Q516 398 499 443T450 512T369 535ZM552 723H434L369 815L304 723H186L286 886H452L552 723Z" />
<glyph unicode="&#xd5;" horiz-adv-x="737" d="M369 670Q469 670 541 630T653 513T692 330Q692 223 653 147T542 31T369 -10Q269 -10 196 30T84 147T45 330Q45 437 84 513T196 629T369 670ZM369 535Q321 535 288 512T238 444T221 330Q221 263 238 217T288 148T369
125Q417 125 449 148T499 217T516 330Q516 398 499 443T450 512T369 535ZM567 878Q565 825 549 790T505 737T444 719Q416 719 396 727T360 747T332 767T304 776Q287 776 278 762T266 720H170Q173 800 209 839T301 879Q328 879 347 871T380 851T406 831T433 822Q451
822 459 836T471 878H567Z" />
<glyph unicode="&#xd6;" horiz-adv-x="737" d="M369 670Q469 670 541 630T653 513T692 330Q692 223 653 147T542 31T369 -10Q269 -10 196 30T84 147T45 330Q45 437 84 513T196 629T369 670ZM369 535Q321 535 288 512T238 444T221 330Q221 263 238 217T288 148T369
125Q417 125 449 148T499 217T516 330Q516 398 499 443T450 512T369 535ZM258 870Q299 870 321 850T344 793Q344 757 322 737T258 716Q219 716 197 736T174 793Q174 830 196 850T258 870ZM478 870Q518 870 541 850T564 793Q564 757 541 737T478 716Q439 716 417
736T394 793Q394 830 416 850T478 870Z" />
<glyph unicode="&#xd7;" horiz-adv-x="604" d="M458 78L550 170L146 574L54 482L458 78ZM146 78L550 482L458 574L54 170L146 78Z" />
<glyph unicode="&#xd8;" horiz-adv-x="737" d="M252 113L203 154L472 524L523 486L252 113ZM62 -27L186 135L239 95L142 -27H62ZM548 515L495 555L595 681H675L548 515ZM369 670Q469 670 541 630T653 513T692 330Q692 223 653 147T542 31T369 -10Q269 -10 196
30T84 147T45 330Q45 437 84 513T196 629T369 670ZM369 535Q321 535 288 512T238 444T221 330Q221 263 238 217T288 148T369 125Q417 125 449 148T499 217T516 330Q516 398 499 443T450 512T369 535Z" />
<glyph unicode="&#xd9;" horiz-adv-x="710" d="M650 660V269Q650 129 576 60T355 -10Q210 -10 135 59T60 269V660H233V266Q233 195 263 160T355 125Q417 125 447 160T478 266V660H650ZM366 876L427 713H303L214 876H366Z" />
<glyph unicode="&#xda;" horiz-adv-x="710" d="M650 660V269Q650 129 576 60T355 -10Q210 -10 135 59T60 269V660H233V266Q233 195 263 160T355 125Q417 125 447 160T478 266V660H650ZM344 876H496L407 713H283L344 876Z" />
<glyph unicode="&#xdb;" horiz-adv-x="710" d="M650 660V269Q650 129 576 60T355 -10Q210 -10 135 59T60 269V660H233V266Q233 195 263 160T355 125Q417 125 447 160T478 266V660H650ZM538 713H420L355 805L290 713H172L272 876H438L538 713Z" />
<glyph unicode="&#xdc;" horiz-adv-x="710" d="M650 660V269Q650 129 576 60T355 -10Q210 -10 135 59T60 269V660H233V266Q233 195 263 160T355 125Q417 125 447 160T478 266V660H650ZM244 860Q285 860 307 840T330 783Q330 747 308 727T244 706Q205 706 183 726T160
783Q160 820 182 840T244 860ZM464 860Q504 860 527 840T550 783Q550 747 527 727T464 706Q425 706 403 726T380 783Q380 820 402 840T464 860Z" />
<glyph unicode="&#xdd;" horiz-adv-x="657" d="M647 660L414 241V0H242V241L9 660H187L280 479L329 369L379 479L472 660H647ZM317 878H469L380 715H256L317 878Z" />
<glyph unicode="&#xde;" horiz-adv-x="674" d="M374 559Q500 559 567 503T635 337Q635 228 568 172T374 115H159V243H355Q462 243 462 338Q462 386 435 408T355 430H159V559H374ZM245 660V0H73V660H245Z" />
<glyph unicode="&#xdf;" horiz-adv-x="646" d="M437 362Q494 362 533 339T592 277T613 187Q613 134 591 90T523 18T403 -10Q358 -10 324 -1T269 22L297 134Q310 125 327 119T370 112Q408 112 430 138T453 207Q453 252 426 275T349 299H294L311 418H341Q386 418
408 444T431 510Q431 552 406 573T339 594Q279 594 255 559T231 448V0H61V461Q61 541 88 598T178 686T345 717Q427 717 483 693T567 626T596 529Q596 488 578 451T524 389T437 364V362Z" />
<glyph unicode="&#xe0;" horiz-adv-x="579" d="M340 317Q340 352 321 372T268 393Q235 393 212 377T179 318L35 352Q49 424 109 467T278 510Q351 510 402 489T481 425T509 320V137Q509 98 544 98Q562 98 573 102L563 5Q533 -9 490 -9Q451 -9 421 3T374 41T357
106V112L376 119Q376 76 351 47T285 4T200 -10Q149 -10 111 6T53 52T32 128Q32 182 64 217T167 267L356 306L355 216L259 196Q229 190 215 179T200 144Q200 122 216 111T254 100Q271 100 286 105T314 120T333 147T340 185V317ZM277 738L344 565H220L119 738H277Z"
/>
<glyph unicode="&#xe1;" horiz-adv-x="579" d="M340 317Q340 352 321 372T268 393Q235 393 212 377T179 318L35 352Q49 424 109 467T278 510Q351 510 402 489T481 425T509 320V137Q509 98 544 98Q562 98 573 102L563 5Q533 -9 490 -9Q451 -9 421 3T374 41T357
106V112L376 119Q376 76 351 47T285 4T200 -10Q149 -10 111 6T53 52T32 128Q32 182 64 217T167 267L356 306L355 216L259 196Q229 190 215 179T200 144Q200 122 216 111T254 100Q271 100 286 105T314 120T333 147T340 185V317ZM267 738H425L324 565H200L267 738Z"
/>
<glyph unicode="&#xe2;" horiz-adv-x="579" d="M340 317Q340 352 321 372T268 393Q235 393 212 377T179 318L35 352Q49 424 109 467T278 510Q351 510 402 489T481 425T509 320V137Q509 98 544 98Q562 98 573 102L563 5Q533 -9 490 -9Q451 -9 421 3T374 41T357
106V112L376 119Q376 76 351 47T285 4T200 -10Q149 -10 111 6T53 52T32 128Q32 182 64 217T167 267L356 306L355 216L259 196Q229 190 215 179T200 144Q200 122 216 111T254 100Q271 100 286 105T314 120T333 147T340 185V317ZM468 559H346L277 647L208 559H86L195
732H359L468 559Z" />
<glyph unicode="&#xe3;" horiz-adv-x="579" d="M340 317Q340 352 321 372T268 393Q235 393 212 377T179 318L35 352Q49 424 109 467T278 510Q351 510 402 489T481 425T509 320V137Q509 98 544 98Q562 98 573 102L563 5Q533 -9 490 -9Q451 -9 421 3T374 41T357
106V112L376 119Q376 76 351 47T285 4T200 -10Q149 -10 111 6T53 52T32 128Q32 182 64 217T167 267L356 306L355 216L259 196Q229 190 215 179T200 144Q200 122 216 111T254 100Q271 100 286 105T314 120T333 147T340 185V317ZM475 718Q473 665 457 630T413 577T352
559Q324 559 304 567T268 587T240 607T212 616Q195 616 186 602T174 560H78Q81 640 117 679T209 719Q236 719 255 711T288 691T314 671T341 662Q359 662 367 676T379 718H475Z" />
<glyph unicode="&#xe4;" horiz-adv-x="579" d="M340 317Q340 352 321 372T268 393Q235 393 212 377T179 318L35 352Q49 424 109 467T278 510Q351 510 402 489T481 425T509 320V137Q509 98 544 98Q562 98 573 102L563 5Q533 -9 490 -9Q451 -9 421 3T374 41T357
106V112L376 119Q376 76 351 47T285 4T200 -10Q149 -10 111 6T53 52T32 128Q32 182 64 217T167 267L356 306L355 216L259 196Q229 190 215 179T200 144Q200 122 216 111T254 100Q271 100 286 105T314 120T333 147T340 185V317ZM166 710Q207 710 229 690T252 633Q252
597 230 577T166 556Q127 556 105 576T82 633Q82 670 104 690T166 710ZM386 710Q426 710 449 690T472 633Q472 597 449 577T386 556Q347 556 325 576T302 633Q302 670 324 690T386 710Z" />
<glyph unicode="&#xe5;" horiz-adv-x="579" d="M340 317Q340 352 321 372T268 393Q235 393 212 377T179 318L35 352Q49 424 109 467T278 510Q351 510 402 489T481 425T509 320V137Q509 98 544 98Q562 98 573 102L563 5Q533 -9 490 -9Q451 -9 421 3T374 41T357
106V112L376 119Q376 76 351 47T285 4T200 -10Q149 -10 111 6T53 52T32 128Q32 182 64 217T167 267L356 306L355 216L259 196Q229 190 215 179T200 144Q200 122 216 111T254 100Q271 100 286 105T314 120T333 147T340 185V317ZM276 802Q339 802 377 768T415 677Q415
619 377 585T276 551Q213 551 175 585T136 677Q136 734 174 768T276 802ZM276 729Q252 729 237 715T222 677Q222 653 237 639T276 624Q300 624 314 638T329 677Q329 701 315 715T276 729Z" />
<glyph unicode="&#xe6;" horiz-adv-x="878" d="M208 -10Q153 -10 114 6T53 52T32 128Q32 183 68 219T169 268L339 302V315Q339 352 319 372T264 393Q234 393 212 377T179 318L34 352Q40 397 70 432T151 489T265 510Q347 510 399 483T465 399L410 397Q430 433 460
458T528 496T610 510Q686 510 738 480T817 396T844 273Q844 256 843 240T840 207H503V207Q503 160 536 135T613 110Q648 110 667 125T698 167L835 122Q821 79 789 50T712 5T615 -10Q528 -10 471 30T392 148L428 142Q422 110 405 83T361 34T295 2T208 -10ZM254 99Q271
99 286 104T313 121T332 149T339 186V215L257 197Q226 190 213 179T199 144Q199 125 213 112T254 99ZM503 298H683Q682 327 672 348T643 380T599 391Q559 391 535 368T503 298Z" />
<glyph unicode="&#xe7;" horiz-adv-x="567" d="M298 510Q374 510 424 489T503 432T539 355L382 303Q375 346 357 367T303 389Q271 389 250 375T217 329T206 248Q206 199 218 169T252 125T304 111Q329 111 345 120T373 148T387 192L540 143Q533 99 503 65T422 10T305
-10Q223 -10 162 20T68 109T35 250Q35 332 68 390T160 479T298 510ZM222 10L263 37Q341 26 378 -5T415 -90Q415 -146 378 -180T275 -215Q236 -215 213 -207T172 -186L200 -105Q212 -112 226 -117T260 -123Q286 -123 302 -108T318 -66Q318 -43 297 -25T222 10Z"
/>
<glyph unicode="&#xe8;" horiz-adv-x="579" d="M305 -10Q222 -10 162 21T68 110T35 250Q35 332 68 390T160 479T297 510Q376 510 431 480T516 396T545 273Q545 255 544 237T541 207H145V298H466L385 267Q385 327 364 359T297 391Q265 391 243 376T209 329T197
247Q197 198 210 168T247 124T305 110Q343 110 365 125T399 167L535 122Q521 79 487 50T405 5T305 -10ZM294 738L361 565H237L136 738H294Z" />
<glyph unicode="&#xe9;" horiz-adv-x="579" d="M305 -10Q222 -10 162 21T68 110T35 250Q35 332 68 390T160 479T297 510Q376 510 431 480T516 396T545 273Q545 255 544 237T541 207H145V298H466L385 267Q385 327 364 359T297 391Q265 391 243 376T209 329T197
247Q197 198 210 168T247 124T305 110Q343 110 365 125T399 167L535 122Q521 79 487 50T405 5T305 -10ZM284 738H442L341 565H217L284 738Z" />
<glyph unicode="&#xea;" horiz-adv-x="579" d="M305 -10Q222 -10 162 21T68 110T35 250Q35 332 68 390T160 479T297 510Q376 510 431 480T516 396T545 273Q545 255 544 237T541 207H145V298H466L385 267Q385 327 364 359T297 391Q265 391 243 376T209 329T197
247Q197 198 210 168T247 124T305 110Q343 110 365 125T399 167L535 122Q521 79 487 50T405 5T305 -10ZM485 559H363L294 647L225 559H103L212 732H376L485 559Z" />
<glyph unicode="&#xeb;" horiz-adv-x="579" d="M305 -10Q222 -10 162 21T68 110T35 250Q35 332 68 390T160 479T297 510Q376 510 431 480T516 396T545 273Q545 255 544 237T541 207H145V298H466L385 267Q385 327 364 359T297 391Q265 391 243 376T209 329T197
247Q197 198 210 168T247 124T305 110Q343 110 365 125T399 167L535 122Q521 79 487 50T405 5T305 -10ZM183 710Q224 710 246 690T269 633Q269 597 247 577T183 556Q144 556 122 576T99 633Q99 670 121 690T183 710ZM403 710Q443 710 466 690T489 633Q489 597 466
577T403 556Q364 556 342 576T319 633Q319 670 341 690T403 710Z" />
<glyph unicode="&#xec;" horiz-adv-x="291" d="M231 500V0H61V500H231ZM146 738L213 565H89L-12 738H146Z" />
<glyph unicode="&#xed;" horiz-adv-x="291" d="M231 500V0H61V500H231ZM136 738H294L193 565H69L136 738Z" />
<glyph unicode="&#xee;" horiz-adv-x="291" d="M231 500V0H61V500H231ZM337 559H215L146 647L77 559H-45L64 732H228L337 559Z" />
<glyph unicode="&#xef;" horiz-adv-x="291" d="M242 554Q203 554 182 574T161 633Q161 672 182 692T242 712Q281 712 301 692T322 633Q322 595 302 575T242 554ZM49 554Q11 554 -10 574T-31 633Q-31 672 -10 692T49 712Q89 712 109 692T130 633Q130 595 110 575T49
554ZM231 500V0H61V500H231Z" />
<glyph unicode="&#xf0;" horiz-adv-x="604" d="M298 -10Q218 -10 161 20T72 106T41 243Q41 323 71 379T156 465T279 495Q348 495 387 464T441 382L433 378Q426 437 407 484T356 571T279 647T176 722H331Q376 698 417 661T490 571T542 452T562 303Q562 203 529
133T437 27T298 -10ZM304 111Q338 111 359 126T390 171T401 243Q401 292 391 322T359 368T306 383Q276 383 255 368T224 323T213 243Q213 176 236 144T304 111ZM192 539L180 600L357 634L384 580L192 539ZM419 586L396 640L554 673L568 615L419 586Z" />
<glyph unicode="&#xf1;" horiz-adv-x="620" d="M61 0V500H213L222 328L203 347Q213 401 238 437T302 491T389 510Q441 510 479 490T540 431T562 333V0H392V288Q392 340 372 360T321 380Q297 380 276 369T243 332T231 265V0H61ZM511 718Q509 665 493 630T449 577T388
559Q360 559 340 567T304 587T276 607T248 616Q231 616 222 602T210 560H114Q117 640 153 679T245 719Q272 719 291 711T324 691T350 671T377 662Q395 662 403 676T415 718H511Z" />
<glyph unicode="&#xf2;" horiz-adv-x="599" d="M299 510Q378 510 437 480T530 391T564 250Q564 168 531 110T438 21T299 -10Q222 -10 162 20T69 109T35 250Q35 332 68 390T162 479T299 510ZM299 389Q270 389 249 375T217 330T206 250Q206 201 217 171T249 126T299
111Q329 111 350 125T382 170T393 250Q393 299 382 330T350 375T299 389ZM299 738L366 565H242L141 738H299Z" />
<glyph unicode="&#xf3;" horiz-adv-x="599" d="M299 510Q378 510 437 480T530 391T564 250Q564 168 531 110T438 21T299 -10Q222 -10 162 20T69 109T35 250Q35 332 68 390T162 479T299 510ZM299 389Q270 389 249 375T217 330T206 250Q206 201 217 171T249 126T299
111Q329 111 350 125T382 170T393 250Q393 299 382 330T350 375T299 389ZM289 738H447L346 565H222L289 738Z" />
<glyph unicode="&#xf4;" horiz-adv-x="599" d="M299 510Q378 510 437 480T530 391T564 250Q564 168 531 110T438 21T299 -10Q222 -10 162 20T69 109T35 250Q35 332 68 390T162 479T299 510ZM299 389Q270 389 249 375T217 330T206 250Q206 201 217 171T249 126T299
111Q329 111 350 125T382 170T393 250Q393 299 382 330T350 375T299 389ZM490 559H368L299 647L230 559H108L217 732H381L490 559Z" />
<glyph unicode="&#xf5;" horiz-adv-x="599" d="M299 510Q378 510 437 480T530 391T564 250Q564 168 531 110T438 21T299 -10Q222 -10 162 20T69 109T35 250Q35 332 68 390T162 479T299 510ZM299 389Q270 389 249 375T217 330T206 250Q206 201 217 171T249 126T299
111Q329 111 350 125T382 170T393 250Q393 299 382 330T350 375T299 389ZM497 718Q495 665 479 630T435 577T374 559Q346 559 326 567T290 587T262 607T234 616Q217 616 208 602T196 560H100Q103 640 139 679T231 719Q258 719 277 711T310 691T336 671T363 662Q381
662 389 676T401 718H497Z" />
<glyph unicode="&#xf6;" horiz-adv-x="599" d="M299 510Q378 510 437 480T530 391T564 250Q564 168 531 110T438 21T299 -10Q222 -10 162 20T69 109T35 250Q35 332 68 390T162 479T299 510ZM299 389Q270 389 249 375T217 330T206 250Q206 201 217 171T249 126T299
111Q329 111 350 125T382 170T393 250Q393 299 382 330T350 375T299 389ZM188 710Q229 710 251 690T274 633Q274 597 252 577T188 556Q149 556 127 576T104 633Q104 670 126 690T188 710ZM408 710Q448 710 471 690T494 633Q494 597 471 577T408 556Q369 556 347
576T324 633Q324 670 346 690T408 710Z" />
<glyph unicode="&#xf7;" horiz-adv-x="623" d="M564 386V264H60V386H564ZM311 191Q350 191 372 169T395 109Q395 71 373 50T311 28Q272 28 250 49T228 109Q228 147 250 169T311 191ZM311 621Q350 621 372 599T395 539Q395 501 373 480T311 458Q272 458 250 479T228
539Q228 577 250 599T311 621Z" />
<glyph unicode="&#xf8;" horiz-adv-x="599" d="M299 510Q378 510 437 480T530 391T564 250Q564 168 531 110T438 21T299 -10Q222 -10 162 20T69 109T35 250Q35 332 68 390T162 479T299 510ZM299 389Q270 389 249 375T217 330T206 250Q206 201 217 171T249 126T299
111Q329 111 350 125T382 170T393 250Q393 299 382 330T350 375T299 389ZM300 -25L743 524H810L367 -25H300Z" />
<glyph unicode="&#xf9;" horiz-adv-x="619" d="M230 -10Q179 -10 141 7T80 64T58 166V500H228V206Q228 158 247 139T301 120Q319 120 335 126T363 146T381 181T388 232V500H558V0H406L401 94Q377 41 334 16T230 -10ZM305 734L372 561H248L147 734H305Z" />
<glyph unicode="&#xfa;" horiz-adv-x="619" d="M230 -10Q179 -10 141 7T80 64T58 166V500H228V206Q228 158 247 139T301 120Q319 120 335 126T363 146T381 181T388 232V500H558V0H406L401 94Q377 41 334 16T230 -10ZM295 734H453L352 561H228L295 734Z" />
<glyph unicode="&#xfb;" horiz-adv-x="619" d="M230 -10Q179 -10 141 7T80 64T58 166V500H228V206Q228 158 247 139T301 120Q319 120 335 126T363 146T381 181T388 232V500H558V0H406L401 94Q377 41 334 16T230 -10ZM496 555H374L305 643L236 555H114L223 728H387L496
555Z" />
<glyph unicode="&#xfc;" horiz-adv-x="619" d="M230 -10Q179 -10 141 7T80 64T58 166V500H228V206Q228 158 247 139T301 120Q319 120 335 126T363 146T381 181T388 232V500H558V0H406L401 94Q377 41 334 16T230 -10ZM194 706Q235 706 257 686T280 629Q280 593
258 573T194 552Q155 552 133 572T110 629Q110 666 132 686T194 706ZM414 706Q454 706 477 686T500 629Q500 593 477 573T414 552Q375 552 353 572T330 629Q330 666 352 686T414 706Z" />
<glyph unicode="&#xfd;" horiz-adv-x="563" d="M564 500L382 0Q354 -79 321 -126T243 -194T135 -215Q93 -215 58 -206T-3 -181L31 -66Q49 -79 69 -84T120 -90Q149 -90 167 -80T197 -42L210 -11L152 125L2 500H189L266 215L290 109L318 219L395 500H564ZM287 734H445L344
561H220L287 734Z" />
<glyph unicode="&#xfe;" horiz-adv-x="627" d="M61 -210V712H231V361L215 367Q229 429 272 469T388 510Q446 510 491 479T562 390T588 248Q588 168 562 110T490 21T381 -10Q313 -10 271 30T215 133L231 157V-210H61ZM323 115Q367 115 392 147T417 250Q417 320
393 352T324 385Q296 385 275 370T243 324T231 250Q231 208 241 178T273 131T323 115Z" />
<glyph unicode="&#xff;" horiz-adv-x="563" d="M564 500L382 0Q354 -79 321 -126T243 -194T135 -215Q93 -215 58 -206T-3 -181L31 -66Q49 -79 69 -84T120 -90Q149 -90 167 -80T197 -42L210 -11L152 125L2 500H189L266 215L290 109L318 219L395 500H564ZM186 706Q227
706 249 686T272 629Q272 593 250 573T186 552Q147 552 125 572T102 629Q102 666 124 686T186 706ZM406 706Q446 706 469 686T492 629Q492 593 469 573T406 552Q367 552 345 572T322 629Q322 666 344 686T406 706Z" />
<glyph unicode="&#x2013;" horiz-adv-x="692" d="M614 335V200H78V335H614Z" />
<glyph unicode="&#x2014;" horiz-adv-x="1006" d="M928 335V200H78V335H928Z" />
<glyph unicode="&#x2018;" horiz-adv-x="294" d="M149 362Q113 362 89 379T53 424T41 484Q41 530 60 571T111 643T180 692L249 641Q222 629 198 613T157 576T130 535L135 532Q141 536 148 538T169 540Q187 540 205 531T236 504T249 458Q249 427 235 406T198 373T149 362Z" />
<glyph unicode="&#x2019;" horiz-adv-x="294" d="M150 690Q187 690 211 673T246 629T258 567Q258 522 239 481T188 408T119 360L50 411Q78 422 101 439T142 476T169 517L164 520Q159 516 151 514T130 512Q112 512 94 521T63 548T50 594Q50 626 64 647T101 679T150 690Z" />
<glyph unicode="&#x201a;" horiz-adv-x="286" d="M397 172Q434 172 458 155T493 111T505 49Q505 4 486 -37T435 -110T366 -158L297 -107Q325 -96 348 -79T389 -42T416 -1L411 2Q406 -2 398 -4T377 -6Q359 -6 341 3T310 30T297 76Q297 108 311 129T348 161T397 172Z" />
<glyph unicode="&#x201c;" horiz-adv-x="539" d="M149 362Q113 362 89 379T53 424T41 484Q41 530 60 571T111 643T180 692L249 641Q222 629 198 613T157 576T130 535L135 532Q141 536 148 538T169 540Q187 540 205 531T236 504T249 458Q249 427 235 406T198 373T149
362ZM394 362Q358 362 334 379T298 424T286 484Q286 530 305 571T356 643T425 692L494 641Q467 629 443 613T402 576T375 535L380 532Q386 536 393 538T414 540Q432 540 450 531T481 504T494 458Q494 427 480 406T443 373T394 362Z" />
<glyph unicode="&#x201d;" horiz-adv-x="539" d="M150 690Q187 690 211 673T246 629T258 567Q258 522 239 481T188 408T119 360L50 411Q78 422 101 439T142 476T169 517L164 520Q159 516 151 514T130 512Q112 512 94 521T63 548T50 594Q50 626 64 647T101 679T150
690ZM395 690Q432 690 456 673T491 629T503 567Q503 522 484 481T433 408T364 360L295 411Q323 422 346 439T387 476T414 517L409 520Q404 516 396 514T375 512Q357 512 339 521T308 548T295 594Q295 626 309 647T346 679T395 690Z" />
<glyph unicode="&#x201e;" horiz-adv-x="526" d="M397 172Q434 172 458 155T493 111T505 49Q505 4 486 -37T435 -110T366 -158L297 -107Q325 -96 348 -79T389 -42T416 -1L411 2Q406 -2 398 -4T377 -6Q359 -6 341 3T310 30T297 76Q297 108 311 129T348 161T397
172ZM381 172Q418 172 442 155T477 111T489 49Q489 4 470 -37T419 -110T350 -158L281 -107Q309 -96 332 -79T373 -42T400 -1L395 2Q390 -2 382 -4T361 -6Q343 -6 325 3T294 30T281 76Q281 108 295 129T332 161T381 172Z" />
<glyph unicode="&#x2022;" horiz-adv-x="430" d="M215 184Q144 184 103 224T61 333Q61 402 102 441T215 481Q287 481 328 442T369 333Q369 265 328 225T215 184Z" />
<glyph unicode="&#x2039;" horiz-adv-x="343" d="M308 461L187 265L308 69H160L35 265L160 461H308Z" />
<glyph unicode="&#x203a;" horiz-adv-x="343" d="M35 69L156 265L35 461H183L308 265L183 69H35Z" />
</font>
</defs>
</svg>
