<svg width="28" height="48" viewBox="0 0 28 48" fill="none" xmlns="http://www.w3.org/2000/svg">
<path d="M15.9601 24.4355V35.9816V36.4544H15.9557C15.957 36.4843 15.9601 36.5142 15.9601 36.5447C15.9601 37.7635 14.972 38.7517 13.7531 38.7517C12.5343 38.7517 11.5461 37.7635 11.5461 36.5447C11.5461 36.5142 11.5493 36.4849 11.5505 36.4544H11.5467V35.9816V24.4355L5.77336 30.2089L0 24.4355V35.9816V36.4544C0 42.8315 5.16965 48.0005 11.5461 48.0005H15.9595C22.3366 48.0005 27.5056 42.8309 27.5056 36.4544V35.9816V24.4355L21.7322 30.2089L15.9601 24.4355Z" fill="#2190F6"/>
<path d="M3.64131 24.4366C4.30094 24.699 5.01967 24.8446 5.77336 24.8446C6.52704 24.8446 7.24577 24.699 7.9054 24.4366C9.87412 23.6537 11.3103 21.8197 11.5194 19.6266C11.5365 19.4436 11.5467 19.2587 11.5467 19.0712C11.5467 15.883 8.96221 13.2979 5.77336 13.2979C2.58451 13.2979 0 15.8824 0 19.0712C0 19.2587 0.00953177 19.4436 0.0273253 19.6266C0.236399 21.8197 1.67259 23.653 3.64131 24.4366Z" fill="#2190F6"/>
<path d="M15.9604 19.0693C15.9604 19.2567 15.97 19.4416 15.9878 19.6247C16.1968 21.8177 17.633 23.6511 19.6018 24.4346C20.2614 24.6971 20.9801 24.8426 21.7338 24.8426C22.4869 24.8426 23.2062 24.6971 23.8659 24.4346C25.8346 23.6517 27.2708 21.8177 27.4798 19.6247C27.497 19.4416 27.5072 19.2567 27.5072 19.0693C27.5072 15.881 24.9227 13.2959 21.7338 13.2959C18.545 13.2959 15.9604 15.8804 15.9604 19.0693Z" fill="#2190F6"/>
<path d="M17.8349 12.2474C20.0895 9.99277 20.0895 6.33731 17.8349 4.0827C15.5803 1.82808 11.9248 1.82808 9.67023 4.0827C7.41562 6.33731 7.41562 9.99276 9.67023 12.2474C11.9248 14.502 15.5803 14.502 17.8349 12.2474Z" fill="#2190F6"/>
</svg>
