<?xml version="1.0" standalone="no"?>
<!DOCTYPE svg PUBLIC "-//W3C//DTD SVG 1.1//EN" "http://www.w3.org/Graphics/SVG/1.1/DTD/svg11.dtd">
<svg xmlns="http://www.w3.org/2000/svg">
<defs >
<font id="Rubik" horiz-adv-x="543" ><font-face
    font-family="Rubik Light SemiBold"
    units-per-em="1000"
    panose-1="0 0 0 0 0 0 0 0 0 0"
    ascent="935"
    descent="-250"
    alphabetic="0" />
<glyph unicode=" " horiz-adv-x="221" />
<glyph unicode="!" horiz-adv-x="279" d="M91 207Q80 207 73 214T66 232V675Q66 686 73 693T91 700H188Q199 700 206 693T213 675V232Q213 221 206 214T188 207H91ZM85 0Q75 0 68 7T61 25V132Q61 143 68 150T85 157H193Q204 157 211 150T218 132V25Q218 14 211
7T193 0H85Z" />
<glyph unicode="&quot;" horiz-adv-x="432" d="M288 457Q274 457 269 464T262 482L241 682Q239 695 245 702T264 710H364Q375 710 381 703T387 682L366 482Q365 472 359 465T339 457H288ZM92 457Q79 457 74 464T66 482L45 682Q44 695 50 702T68 710H168Q180 710
186 703T191 682L170 482Q169 472 164 465T144 457H92Z" />
<glyph unicode="#" horiz-adv-x="689" d="M153 39Q144 39 138 45T132 61L148 163H69Q59 163 53 169T46 186V254Q46 264 52 270T69 277H164L185 417H95Q85 417 79 423T72 440V508Q72 518 78 524T95 531H202L218 634Q220 642 225 648T241 655H309Q318 655 324 649T330
633L315 531H429L445 634Q447 642 452 648T468 655H536Q545 655 551 649T557 633L542 531H619Q630 531 636 525T643 508V440Q643 430 637 424T619 417H525L505 277H593Q604 277 610 271T617 254V186Q617 176 611 170T593 163H487L472 60Q469 39 448 39H380Q371
39 365 45T359 61L375 163H260L245 60Q242 39 221 39H153ZM278 277H391L412 417H298L278 277Z" />
<glyph unicode="$" horiz-adv-x="655" d="M291 -100Q280 -100 273 -93T266 -75V-6Q190 3 139 31T62 101T34 187Q34 195 40 201T56 208H163Q176 208 183 203T196 189Q203 172 218 156T261 130T328 119Q393 119 425 140T458 197Q458 223 441 239T386 268T285 296Q210
312 158 337T80 403T53 504Q53 583 109 638T266 706V775Q266 786 273 793T291 800H362Q372 800 379 793T386 775V704Q455 693 501 663T572 594T598 519Q598 511 592 505T577 498H464Q455 498 447 502T433 516Q428 542 398 561T322 581Q273 581 244 563T215 508Q215
484 230 468T279 439T371 411Q459 393 514 368T594 304T620 204Q620 146 591 102T510 30T386 -6V-75Q386 -86 379 -93T362 -100H291Z" />
<glyph unicode="%" horiz-adv-x="795" d="M111 0Q89 0 89 20Q89 26 93 31L587 681Q594 690 601 695T621 700H683Q705 700 705 680Q705 674 701 669L207 19Q200 10 194 5T173 0H111ZM603 -5Q535 -5 496 31T452 127Q450 153 450 173T452 221Q455 281 493 318T603
355Q674 355 712 318T754 221Q756 193 756 173T754 127Q751 67 711 31T603 -5ZM603 77Q622 77 633 85T649 106T656 133Q658 156 658 174T656 216Q655 237 643 254T603 271Q575 271 564 254T550 216Q549 193 549 175T550 133Q552 119 556 106T572 85T603 77ZM192
347Q124 347 85 382T41 478Q39 504 39 523T41 571Q44 632 82 668T192 705Q264 705 302 669T343 571Q345 543 345 524T343 478Q340 418 300 383T192 347ZM192 428Q211 428 222 436T238 457T245 483Q247 507 247 525T245 566Q244 587 232 604T192 622Q164 622 153
605T139 566Q138 544 138 526T139 483Q141 470 146 457T162 436T192 428Z" />
<glyph unicode="&amp;" horiz-adv-x="730" d="M296 -10Q221 -10 165 14T78 85T47 193Q47 237 64 271T113 332T184 383Q143 427 126 463T108 537Q108 583 132 622T203 685T318 710Q382 710 427 687T496 624T520 539Q520 498 502 466T451 407T378 357L509 226Q519
243 534 273T561 350Q564 366 582 366H669Q678 366 683 361T689 346Q688 327 680 302T658 248T627 193T593 143L702 33Q709 25 709 18Q709 10 704 5T690 0H575Q565 0 559 3T548 10L498 58Q458 25 409 8T296 -10ZM296 105Q329 105 358 115T413 150L265 295Q234 278
212 255T190 198Q190 169 205 148T244 116T296 105ZM300 440Q325 454 346 467T379 497T391 535Q391 566 370 584T318 602Q289 602 267 584T245 535Q245 521 250 508T267 478T300 440Z" />
<glyph unicode="&apos;" horiz-adv-x="236" d="M92 457Q79 457 74 464T66 482L45 682Q44 695 50 702T68 710H168Q180 710 186 703T191 682L170 482Q169 472 164 465T144 457H92Z" />
<glyph unicode="(" horiz-adv-x="372" d="M324 -159Q257 -159 205 -133T118 -50T64 96T46 309Q46 434 64 522T117 667T205 749T324 776Q334 776 341 769T349 751V680Q349 669 342 662T326 655Q285 653 257 631T213 566T190 459T183 309Q183 223 190 159T213 52T257
-13T326 -38Q335 -38 342 -45T349 -63V-134Q349 -144 342 -151T324 -159Z" />
<glyph unicode=")" horiz-adv-x="372" d="M48 -159Q38 -159 31 -152T23 -134V-63Q23 -52 30 -45T47 -38Q88 -36 115 -14T159 52T182 159T189 309Q189 395 182 458T159 565T116 631T47 655Q38 655 31 662T23 680V751Q23 761 30 768T48 776Q116 776 168 750T255
667T308 523T326 309Q326 185 308 96T255 -49T168 -132T48 -159Z" />
<glyph unicode="*" horiz-adv-x="445" d="M152 392L87 441Q80 446 79 455T82 471Q82 472 88 477L155 535L67 542Q63 543 62 543T59 544Q52 546 48 554T45 572L70 649Q72 657 81 661T97 663Q99 663 105 660L180 614L161 700Q160 703 160 705T160 708Q160 716 166
723T182 730H263Q272 730 278 723T285 708Q285 707 285 705T284 700L263 614L340 660Q346 663 348 663Q356 665 364 661T375 649L400 572Q402 563 398 555T386 544Q385 544 384 544T378 542L290 534L357 477Q363 472 363 471Q368 464 367 455T358 441L293 392Q285
388 276 389T262 398Q261 399 260 400T257 404L222 486L188 404Q187 402 186 401T183 398Q179 391 170 390T152 392Z" />
<glyph unicode="+" horiz-adv-x="611" d="M271 33Q260 33 253 40T246 58V247H61Q50 247 43 254T36 271V334Q36 345 43 352T61 359H246V542Q246 553 253 560T271 567H340Q351 567 358 560T365 542V359H550Q560 359 567 352T574 334V271Q574 261 567 254T550 247H365V58Q365
47 358 40T340 33H271Z" />
<glyph unicode="," horiz-adv-x="271" d="M56 -75Q48 -75 43 -69T38 -53L66 129Q68 142 76 152T100 162H204Q212 162 217 157T223 143Q223 137 221 131L151 -48Q147 -58 140 -66T116 -75H56Z" />
<glyph unicode="-" horiz-adv-x="479" d="M84 236Q74 236 67 243T60 260V340Q60 350 67 357T84 364H395Q405 364 412 357T419 340V260Q419 250 412 243T395 236H84Z" />
<glyph unicode="." horiz-adv-x="276" d="M82 0Q71 0 64 7T57 25V137Q57 148 64 155T82 162H194Q205 162 212 155T219 137V25Q219 14 212 7T194 0H82Z" />
<glyph unicode="/" horiz-adv-x="521" d="M45 -84Q36 -84 30 -78T24 -63Q24 -58 26 -53L366 763Q369 771 376 778T399 786H476Q485 786 491 780T497 765Q497 761 495 755L154 -61Q151 -68 144 -76T120 -84H45Z" />
<glyph unicode="0" horiz-adv-x="668" d="M334 -10Q262 -10 211 10T126 67T76 152T56 256Q55 283 55 316T54 384T56 446Q58 501 75 549T127 633T212 689T334 710Q404 710 455 690T540 633T591 549T612 446Q613 418 613 384T614 317T612 256Q609 201 592 153T542
68T457 11T334 -10ZM334 120Q392 120 419 158T448 261Q449 290 449 321T450 383T448 441Q446 503 419 542T334 582Q275 581 249 542T220 441Q219 414 219 383T218 321T220 261Q222 196 249 158T334 120Z" />
<glyph unicode="1" horiz-adv-x="479" d="M277 0Q267 0 260 7T252 25V522L108 411Q99 404 90 406T73 417L23 482Q17 491 18 501T29 517L257 693Q263 697 268 698T281 700H387Q397 700 404 693T411 675V25Q411 14 404 7T387 0H277Z" />
<glyph unicode="2" horiz-adv-x="634" d="M68 0Q57 0 50 7T43 25V85Q43 93 47 106T68 133L200 264Q273 320 318 359T386 430T408 492Q408 531 387 556T317 582Q285 582 264 569T230 533T214 485Q211 472 202 467T182 462H76Q66 462 60 468T54 483Q55 529 73 570T126
643T208 693T317 712Q401 712 458 685T544 609T573 498Q573 450 554 409T497 331T409 253L291 135H563Q574 135 581 128T588 110V25Q588 14 581 7T563 0H68Z" />
<glyph unicode="3" horiz-adv-x="644" d="M318 -10Q244 -10 191 8T104 54T53 115T35 180Q35 189 41 195T56 201H166Q177 201 184 197T197 181Q205 158 223 144T265 125T318 119Q374 119 406 145T438 218Q438 266 408 287T323 308H216Q206 308 199 315T192 332V381Q192
393 196 401T206 413L378 571H96Q85 571 78 578T71 595V675Q71 686 78 693T96 700H540Q551 700 558 693T565 675V603Q565 592 561 585T551 573L388 412L398 411Q457 405 503 382T575 317T602 209Q602 141 565 92T464 17T318 -10Z" />
<glyph unicode="4" horiz-adv-x="667" d="M392 0Q382 0 375 7T368 25V145H53Q43 145 36 152T29 170V251Q29 258 32 266T40 281L333 683Q346 700 370 700H497Q507 700 514 693T521 675V278H610Q622 278 628 271T635 254V170Q635 159 628 152T611 145H521V25Q521
14 514 7T497 0H392ZM184 273H371V536L184 273Z" />
<glyph unicode="5" horiz-adv-x="632" d="M313 -11Q223 -11 162 18T70 94T36 194Q36 203 42 209T57 215H170Q182 215 189 210T201 195Q211 168 227 151T266 126T313 118Q345 118 372 131T415 171T431 235Q431 268 416 293T374 332T313 346Q287 346 271 340T243
326T223 311T203 304H92Q83 304 77 310T70 326L105 671Q107 685 115 692T136 700H524Q535 700 542 693T549 675V595Q549 585 542 578T524 571H235L220 424Q240 437 269 447T352 458Q400 458 443 443T521 397T574 326T594 231Q594 159 560 105T463 20T313 -11Z"
/>
<glyph unicode="6" horiz-adv-x="638" d="M325 -10Q237 -10 173 22T73 110T37 238Q37 268 46 298T68 354T94 402T117 436L297 680Q302 685 310 692T332 700H444Q453 700 459 694T465 678Q465 674 464 671T461 665L323 476Q331 478 341 479T360 480Q408 478 452
460T532 411T587 336T608 240Q608 173 574 116T476 25T325 -10ZM323 119Q356 119 384 132T429 173T446 238Q446 277 429 303T384 343T323 357Q290 357 262 344T217 304T200 238Q200 200 217 173T262 133T323 119Z" />
<glyph unicode="7" horiz-adv-x="558" d="M143 0Q134 0 128 6T122 22Q122 26 124 31L360 566H53Q43 566 36 573T28 590V675Q28 686 35 693T53 700H506Q518 700 524 693T531 675V600Q531 585 529 576T521 556L286 24Q283 18 276 9T252 0H143Z" />
<glyph unicode="8" horiz-adv-x="666" d="M333 -10Q263 -10 210 6T120 52T66 121T48 208Q48 265 76 307T147 372Q112 395 93 430T73 513Q73 570 102 614T188 684T333 710Q419 710 476 685T562 615T591 514Q591 467 572 431T518 372Q564 350 591 307T618 207Q618
145 586 96T490 19T333 -10ZM333 105Q368 105 397 117T442 153T459 207Q459 239 443 261T397 296T333 309Q297 309 269 297T223 262T206 207Q206 176 223 153T268 118T333 105ZM333 418Q364 419 389 430T429 460T444 506Q444 533 430 552T390 583T333 594Q301 594
276 583T236 553T222 506Q222 479 236 460T275 429T333 418Z" />
<glyph unicode="9" horiz-adv-x="629" d="M179 0Q170 0 164 6T158 22Q158 27 159 30T162 35L307 233Q289 229 271 230Q223 232 180 249T103 298T50 371T31 464Q31 510 48 554T101 633T188 689T309 710Q378 710 430 691T519 639T573 562T591 469Q591 425 576 387T539
316T495 252L327 20Q323 15 315 8T292 0H179ZM310 348Q343 348 370 362T412 402T428 464Q428 501 413 527T370 567T310 581Q278 581 251 567T209 527T193 464Q193 428 208 402T251 362T310 348Z" />
<glyph unicode=":" horiz-adv-x="283" d="M85 350Q74 350 67 357T60 375V482Q60 493 67 500T85 507H197Q208 507 215 500T222 482V375Q222 364 215 357T197 350H85ZM85 0Q74 0 67 7T60 25V132Q60 143 67 150T85 157H197Q208 157 215 150T222 132V25Q222 14 215
7T197 0H85Z" />
<glyph unicode=";" horiz-adv-x="293" d="M64 -75Q55 -75 50 -69T46 -53L74 129Q76 142 84 152T108 162H212Q220 162 225 157T231 143Q231 137 228 131L159 -48Q155 -58 148 -66T124 -75H64ZM98 350Q87 350 80 357T73 375V482Q73 493 80 500T98 507H210Q221 507
228 500T235 482V375Q235 364 228 357T210 350H98Z" />
<glyph unicode="&lt;" horiz-adv-x="510" d="M428 11Q424 11 419 13T409 19L60 257Q46 267 39 276T31 301V328Q31 343 38 352T60 372L409 610Q414 612 419 614T428 617Q436 617 442 612T448 597V505Q448 491 440 483T422 468L191 314L422 160Q432 154 440 146T448
123V32Q448 22 442 17T428 11Z" />
<glyph unicode="=" horiz-adv-x="567" d="M88 367Q78 367 71 374T64 392V458Q64 469 71 476T88 483H479Q489 483 496 476T503 458V392Q503 381 496 374T479 367H88ZM88 117Q78 117 71 124T64 142V208Q64 219 71 226T88 233H479Q489 233 496 226T503 208V142Q503
131 496 124T479 117H88Z" />
<glyph unicode="&gt;" horiz-adv-x="510" d="M82 11Q74 11 68 16T62 32V123Q62 138 70 146T88 160L319 314L88 468Q78 474 70 482T62 505V597Q62 606 68 611T82 617Q87 617 92 615T101 610L450 372Q465 362 472 353T479 328V301Q479 286 472 277T450 257L101 19Q97
16 92 14T82 11Z" />
<glyph unicode="?" horiz-adv-x="580" d="M236 199Q228 199 222 205T216 219Q216 226 216 233T216 247Q221 284 238 313T279 368T326 414T365 458T382 502Q385 528 373 545T339 572T293 582Q249 582 223 561T186 495Q182 484 175 478T156 472H52Q43 472 36 479T29
497Q30 537 48 575T101 643T186 692T302 710Q374 710 421 692T497 646T538 585T548 523Q547 486 533 457T498 402T455 354T415 306T389 256Q387 248 386 241T383 225Q378 212 372 206T354 199H236ZM236 0Q225 0 218 7T211 25V125Q211 135 218 142T236 150H348Q358
150 365 143T373 125V25Q373 14 366 7T348 0H236Z" />
<glyph unicode="@" horiz-adv-x="841" d="M424 -127Q306 -127 227 -88T105 22T52 186Q51 200 51 223T50 272T50 321T52 357Q59 422 84 479T155 579T264 648T414 673Q514 673 584 650T698 585T765 484T792 357Q794 335 794 311T794 265T792 230Q789 181 769 147T716
96T643 79Q610 79 586 88T547 110T524 131Q517 119 503 104T464 79T395 69Q321 69 278 123T235 273Q235 368 277 423T393 478Q433 478 456 465T494 432V445Q494 456 501 463T518 470H564Q574 470 581 463T588 445V240Q588 205 603 187T643 169Q666 169 678 181T694
209T699 240Q699 260 700 290T698 352Q694 429 665 480T576 557T414 582Q330 582 274 554T186 474T147 352Q145 335 145 304T144 242T147 191Q159 83 226 23T424 -37Q489 -37 527 -29T588 -7T628 19Q636 25 642 29T658 33H721Q731 33 738 26T745 8Q745 4 743 1T739
-6Q711 -38 669 -65T567 -110T424 -127ZM411 159Q454 159 474 188T494 273Q494 329 474 358T411 388Q369 388 349 359T328 273Q328 239 337 213T364 173T411 159Z" />
<glyph unicode="A" horiz-adv-x="704" d="M33 0Q24 0 18 6T12 21Q12 26 13 30L251 673Q254 684 263 692T288 700H416Q432 700 441 692T453 673L691 30Q692 26 692 21Q692 13 686 7T671 0H567Q552 0 545 7T536 20L493 132H211L168 20Q166 14 159 7T137 0H33ZM248
261H455L352 549L248 261Z" />
<glyph unicode="B" horiz-adv-x="695" d="M99 0Q88 0 81 7T74 25V675Q74 686 81 693T99 700H396Q479 700 532 676T610 608T636 505Q636 468 623 440T590 394T552 367Q591 349 620 308T650 209Q650 146 622 99T539 26T405 0H99ZM233 117H386Q435 117 460 144T485
210Q485 249 460 275T386 302H233V117ZM233 417H377Q424 417 447 440T471 501Q471 538 448 560T377 583H233V417Z" />
<glyph unicode="C" horiz-adv-x="693" d="M352 -10Q258 -10 193 21T91 113T51 261Q50 302 50 349T51 439Q55 525 91 585T194 678T352 710Q419 710 474 693T569 644T631 569T655 473Q655 464 649 458T633 452H519Q507 452 500 458T489 478Q474 537 439 559T352
581Q290 581 254 547T215 434Q212 352 215 266Q218 187 254 153T352 119Q404 119 439 141T489 222Q493 237 500 242T519 248H633Q642 248 648 242T655 227Q653 174 631 131T569 56T474 7T352 -10Z" />
<glyph unicode="D" horiz-adv-x="709" d="M99 0Q88 0 81 7T74 25V675Q74 686 81 693T99 700H350Q450 700 517 669T619 577T657 427Q658 383 658 350T657 274Q654 181 620 120T520 30T355 0H99ZM233 129H350Q400 129 432 144T479 191T496 276Q497 305 497 328T498
374T496 425Q494 500 458 535T345 571H233V129Z" />
<glyph unicode="E" horiz-adv-x="630" d="M99 0Q88 0 81 7T74 25V675Q74 686 81 693T99 700H552Q563 700 570 693T577 675V595Q577 585 570 578T552 571H228V414H530Q541 414 548 407T555 389V315Q555 305 548 298T530 291H228V129H560Q571 129 578 122T585 104V25Q585
14 578 7T560 0H99Z" />
<glyph unicode="F" horiz-adv-x="609" d="M99 0Q88 0 81 7T74 25V675Q74 686 81 693T99 700H545Q556 700 563 693T570 675V590Q570 579 563 572T545 565H230V396H525Q536 396 543 389T550 371V286Q550 276 543 269T525 262H230V25Q230 14 223 7T205 0H99Z" />
<glyph unicode="G" horiz-adv-x="710" d="M355 -10Q261 -10 195 21T92 113T52 260Q51 303 51 352T52 445Q55 529 91 588T195 678T355 710Q429 710 485 691T579 642T637 575T658 506Q658 497 652 491T636 484H512Q502 484 497 488T487 500Q480 518 465 536T423
568T355 581Q292 581 256 548T216 440Q213 354 216 265Q219 187 256 153T357 119Q398 119 430 133T482 179T501 258V283H392Q382 283 375 290T368 308V372Q368 383 375 390T392 397H637Q648 397 655 390T662 372V263Q662 177 625 116T518 23T355 -10Z" />
<glyph unicode="H" horiz-adv-x="737" d="M99 0Q88 0 81 7T74 25V675Q74 686 81 693T99 700H208Q219 700 226 693T233 675V425H504V675Q504 686 511 693T529 700H638Q649 700 656 693T663 675V25Q663 14 656 7T638 0H529Q518 0 511 7T504 25V283H233V25Q233 14
226 7T208 0H99Z" />
<glyph unicode="I" horiz-adv-x="311" d="M99 0Q88 0 81 7T74 25V675Q74 686 81 693T99 700H212Q223 700 230 693T237 675V25Q237 14 230 7T212 0H99Z" />
<glyph unicode="J" horiz-adv-x="661" d="M308 -10Q252 -10 202 4T113 46T52 117T27 215Q27 224 33 230T49 237H163Q176 237 183 230T195 210Q200 178 216 158T256 129T312 119Q369 119 399 156T430 261V567H97Q87 567 80 574T73 591V675Q73 686 80 693T97 700H568Q579
700 586 693T593 675V257Q593 171 557 112T457 21T308 -10Z" />
<glyph unicode="K" horiz-adv-x="647" d="M99 0Q88 0 81 7T74 25V675Q74 686 81 693T99 700H205Q216 700 223 693T230 675V447L436 681Q440 687 449 693T475 700H596Q605 700 611 694T617 679Q617 672 613 667L356 365L632 33Q636 29 636 21Q636 13 630 7T615
0H490Q472 0 463 8T451 19L230 275V25Q230 14 223 7T205 0H99Z" />
<glyph unicode="L" horiz-adv-x="588" d="M99 0Q88 0 81 7T74 25V675Q74 686 81 693T99 700H210Q221 700 228 693T235 675V134H545Q556 134 563 127T570 109V25Q570 14 563 7T545 0H99Z" />
<glyph unicode="M" horiz-adv-x="819" d="M99 0Q89 0 82 7T74 25V675Q74 686 81 693T99 700H192Q207 700 214 692T225 680L409 341L595 680Q597 684 604 692T627 700H720Q731 700 738 693T745 675V25Q745 14 738 7T720 0H618Q608 0 601 7T594 25V429L467 191Q462
182 454 175T433 168H386Q373 168 365 175T352 191L225 429V25Q225 14 218 7T201 0H99Z" />
<glyph unicode="N" horiz-adv-x="713" d="M99 0Q88 0 81 7T74 25V675Q74 686 81 693T99 700H190Q205 700 212 693T221 682L488 265V675Q488 686 495 693T512 700H614Q625 700 632 693T639 675V25Q639 15 632 8T614 0H522Q507 0 501 7T491 18L225 422V25Q225 14
218 7T200 0H99Z" />
<glyph unicode="O" horiz-adv-x="703" d="M352 -10Q261 -10 195 20T92 110T52 263Q51 306 51 348T52 435Q55 525 92 586T196 679T352 710Q440 710 506 679T611 587T651 435Q653 391 653 349T651 263Q648 171 611 111T508 20T352 -10ZM352 119Q410 119 447 154T487
268Q489 312 489 350T487 432Q486 484 468 517T421 565T352 581Q313 581 283 566T236 517T216 432Q215 389 215 351T216 268Q219 190 256 155T352 119Z" />
<glyph unicode="P" horiz-adv-x="667" d="M99 0Q88 0 81 7T74 25V675Q74 686 81 693T99 700H372Q453 700 512 675T605 600T639 474Q639 398 606 349T513 275T372 251H238V25Q238 14 231 7T213 0H99ZM235 375H367Q418 375 446 400T475 475Q475 519 450 547T367
575H235V375Z" />
<glyph unicode="Q" horiz-adv-x="703" d="M522 -65Q507 -65 499 -57T485 -42L449 6Q406 -10 351 -10Q260 -10 194 20T92 110T51 263Q50 306 50 348T51 435Q55 525 92 586T196 679T351 710Q439 710 505 679T610 587T651 435Q653 391 653 349T651 263Q645 135 578
68L650 -34Q651 -35 652 -38T653 -44Q654 -52 648 -58T633 -65H522ZM351 119Q410 119 447 154T487 268Q489 312 489 350T487 432Q485 484 468 517T420 565T351 581Q313 581 283 566T235 517T215 432Q214 389 214 351T215 268Q218 190 255 155T351 119Z" />
<glyph unicode="R" horiz-adv-x="682" d="M99 0Q88 0 81 7T74 25V675Q74 686 81 693T99 700H364Q489 700 561 643T633 477Q633 404 598 355T504 282L645 32Q648 26 648 21Q648 13 642 7T627 0H516Q498 0 489 9T476 27L354 256H233V25Q233 14 226 7T208 0H99ZM233
383H361Q416 383 442 408T469 478Q469 523 443 549T361 575H233V383Z" />
<glyph unicode="S" horiz-adv-x="652" d="M326 -10Q230 -10 166 18T68 91T33 187Q33 195 39 201T54 208H161Q174 208 181 203T194 189Q201 172 216 156T259 130T326 119Q391 119 423 140T456 197Q456 223 439 239T384 268T284 296Q209 312 157 337T78 403T51 504Q51
564 84 610T177 683T320 710Q387 710 438 692T524 645T577 583T596 519Q596 511 590 505T575 498H463Q453 498 445 502T432 516Q426 542 397 561T320 581Q271 581 243 563T214 508Q214 484 228 468T277 439T369 411Q457 393 512 368T593 304T619 204Q619 137 582
89T479 16T326 -10Z" />
<glyph unicode="T" horiz-adv-x="617" d="M253 0Q242 0 235 7T228 25V561H46Q36 561 29 568T22 585V675Q22 686 29 693T46 700H570Q581 700 588 693T595 675V585Q595 575 588 568T570 561H389V25Q389 14 382 7T364 0H253Z" />
<glyph unicode="U" horiz-adv-x="719" d="M360 -10Q272 -10 206 19T104 110T68 267V675Q68 686 75 693T93 700H202Q213 700 220 693T227 675V268Q227 194 262 158T360 122Q422 122 457 158T492 268V675Q492 686 499 693T517 700H627Q637 700 644 693T651 675V267Q651
172 615 111T514 20T360 -10Z" />
<glyph unicode="V" horiz-adv-x="683" d="M276 0Q260 0 251 8T237 29L27 670Q26 675 26 679Q26 687 32 693T47 700H152Q167 700 175 692T186 676L342 187L497 676Q500 683 508 691T531 700H636Q645 700 651 694T657 679Q657 675 656 670L446 29Q443 17 434 9T407 0H276Z" />
<glyph unicode="W" horiz-adv-x="823" d="M188 0Q172 0 163 9T151 31L37 672Q36 674 36 676T36 679Q36 687 42 693T57 700H162Q188 700 191 679L266 256L347 519Q350 527 357 536T380 545H443Q459 545 466 536T475 519L557 257L631 679Q634 700 661 700H766Q775
700 781 694T787 679Q787 678 787 676T786 672L672 31Q670 18 661 9T635 0H554Q538 0 530 8T518 26L411 336L305 26Q302 17 294 9T268 0H188Z" />
<glyph unicode="X" horiz-adv-x="676" d="M36 0Q27 0 21 6T15 21Q15 24 16 27T18 33L239 357L33 667Q30 673 30 679Q30 687 36 693T51 700H174Q187 700 194 693T206 680L340 481L475 680Q479 686 487 693T508 700H625Q633 700 639 694T646 679Q646 672 642 667L436
358L658 33Q660 30 660 27T661 21Q661 13 655 7T640 0H513Q500 0 493 7T481 19L335 229L190 19Q187 14 180 7T158 0H36Z" />
<glyph unicode="Y" horiz-adv-x="672" d="M281 0Q270 0 263 7T256 25V245L22 668Q21 671 20 673T19 679Q19 687 25 693T40 700H146Q160 700 168 693T179 680L336 405L493 680Q496 686 504 693T526 700H632Q640 700 646 694T653 679Q653 676 652 674T650 668L416
245V25Q416 14 409 7T391 0H281Z" />
<glyph unicode="Z" horiz-adv-x="637" d="M63 0Q52 0 45 7T38 25V109Q38 123 44 132T53 145L389 567H72Q62 567 55 574T48 591V675Q48 686 55 693T72 700H563Q574 700 581 693T589 675V592Q589 581 585 573T576 558L249 134H575Q586 134 593 127T600 109V25Q600
14 593 7T575 0H63Z" />
<glyph unicode="[" horiz-adv-x="368" d="M89 -159Q78 -159 71 -152T64 -134V751Q64 762 71 769T89 776H318Q328 776 335 769T342 751V678Q342 668 335 661T318 654H202V-28H318Q328 -28 335 -35T342 -52V-134Q342 -145 335 -152T318 -159H89Z" />
<glyph unicode="\" horiz-adv-x="520" d="M400 -84Q384 -84 377 -76T366 -61L25 755Q23 761 23 765Q23 773 29 779T44 786H121Q136 786 144 779T154 763L494 -53Q496 -58 496 -63Q496 -71 490 -77T475 -84H400Z" />
<glyph unicode="]" horiz-adv-x="368" d="M51 -159Q40 -159 33 -152T26 -134V-52Q26 -42 33 -35T51 -28H166V654H51Q40 654 33 661T26 678V751Q26 762 33 769T51 776H279Q290 776 297 769T304 751V-134Q304 -145 297 -152T279 -159H51Z" />
<glyph unicode="^" horiz-adv-x="456" d="M67 585Q52 585 52 599Q52 607 60 615L160 719Q171 730 178 733T195 736H261Q271 736 278 733T296 719L396 615Q404 607 404 599Q404 585 389 585H347Q339 585 331 586T314 592L228 643L142 592Q135 588 126 587T109 585H67Z" />
<glyph unicode="_" horiz-adv-x="739" d="M74 -64Q64 -64 57 -57T50 -39V40Q50 51 57 58T74 65H665Q675 65 682 58T689 40V-39Q689 -50 682 -57T665 -64H74Z" />
<glyph unicode="`" horiz-adv-x="382" d="M231 595Q218 595 211 598T195 609L66 714Q61 719 61 726Q61 746 80 746H196Q209 746 216 743T233 727L317 624Q322 619 322 611Q322 595 306 595H231Z" />
<glyph unicode="a" horiz-adv-x="580" d="M216 -10Q163 -10 121 10T54 66T29 144Q29 215 86 256T238 312L369 331V349Q369 388 351 409T288 430Q255 430 235 417T204 383Q196 370 181 370H86Q75 370 69 376T64 392Q64 409 77 432T117 477T186 515T289 530Q352
530 397 515T469 473T509 411T522 334V25Q522 14 515 7T497 0H399Q389 0 382 7T375 25V62Q362 43 340 27T288 0T216 -10ZM256 94Q289 94 315 108T356 151T371 224V241L278 226Q224 217 199 199T174 155Q174 136 185 122T216 101T256 94Z" />
<glyph unicode="b" horiz-adv-x="622" d="M365 -10Q308 -10 270 9T208 59V25Q208 14 201 7T183 0H88Q77 0 70 7T63 25V685Q63 696 70 703T88 710H191Q201 710 208 703T215 685V467Q240 495 277 512T365 530Q417 530 455 513T521 464T562 389T578 294Q579 276 579
261T578 226Q576 173 562 130T521 55T456 7T365 -10ZM320 110Q358 110 380 126T411 170T423 229Q425 260 423 291Q421 323 412 350T380 393T320 410Q284 410 262 394T228 354T215 301Q214 283 214 264T215 226Q217 196 227 170T260 127T320 110Z" />
<glyph unicode="c" horiz-adv-x="580" d="M294 -10Q221 -10 166 17T78 95T43 219Q42 235 42 259T43 300Q46 373 77 424T165 503T294 530Q361 530 408 512T485 465T529 407T545 353Q546 343 539 336T521 328H414Q404 328 399 333T388 349Q374 384 352 399T297 414Q252
414 226 385T198 295Q197 256 198 224Q201 162 226 134T297 106Q332 106 353 121T388 171Q392 181 398 186T414 192H521Q531 192 538 185T545 167Q544 150 536 127T509 80T461 36T391 3T294 -10Z" />
<glyph unicode="d" horiz-adv-x="622" d="M256 -10Q206 -10 167 6T101 54T60 129T43 226Q42 245 42 260T43 294Q45 346 59 389T100 463T166 512T256 530Q308 530 345 513T406 467V685Q406 696 413 703T431 710H534Q544 710 551 703T558 685V25Q558 14 551 7T534
0H438Q428 0 421 7T414 25V59Q389 29 351 10T256 -10ZM302 110Q339 110 361 127T394 170T406 226Q408 245 408 264T406 301Q405 329 394 353T361 394T302 410Q264 410 242 394T211 350T199 291Q196 260 199 229Q201 197 210 170T242 127T302 110Z" />
<glyph unicode="e" horiz-adv-x="585" d="M295 -10Q180 -10 113 54T41 240Q41 248 41 261T41 283Q45 360 76 415T163 500T294 530Q378 530 434 496T519 402T548 265V242Q548 232 541 225T523 218H196Q196 217 196 215T196 210Q197 178 208 152T241 109T293 93Q318
93 334 100T360 117T376 134Q385 144 390 146T408 149H512Q522 149 528 144T534 128Q533 112 518 89T472 43T398 5T295 -10ZM196 309H392V311Q392 347 381 373T347 415T294 430Q263 430 241 415T208 374T196 311V309Z" />
<glyph unicode="f" horiz-adv-x="428" d="M145 0Q134 0 127 7T120 25V402H42Q31 402 24 409T17 427V495Q17 506 24 513T42 520H120V556Q120 620 144 661T214 721T327 740H400Q411 740 418 733T425 715V647Q425 636 418 629T400 622H333Q296 622 282 604T267 551V520H390Q401
520 408 513T415 495V427Q415 416 408 409T390 402H267V25Q267 14 260 7T243 0H145Z" />
<glyph unicode="g" horiz-adv-x="625" d="M307 -220Q233 -220 184 -201T107 -154T66 -99T53 -57Q52 -46 60 -39T78 -32H185Q194 -32 200 -36T211 -52Q216 -64 225 -77T252 -100T302 -109Q337 -109 360 -99T394 -65T406 0V67Q382 41 346 24T256 7Q204 7 165 23T99
70T59 144T43 241Q42 268 43 294Q45 346 59 389T99 463T164 512T256 530Q311 530 350 509T414 457V495Q414 505 421 512T438 520H536Q546 520 553 513T561 495L562 14Q562 -61 533 -113T448 -192T307 -220ZM302 124Q338 124 360 140T394 182T406 236Q407 247 407
267T406 299Q405 327 394 352T361 394T302 410Q264 410 242 394T210 350T198 291Q197 267 198 244Q200 211 210 184T242 141T302 124Z" />
<glyph unicode="h" horiz-adv-x="639" d="M88 0Q77 0 70 7T63 25V685Q63 696 70 703T88 710H196Q206 710 213 703T220 685V460Q247 492 286 511T380 530Q439 530 484 504T556 427T582 304V25Q582 14 575 7T557 0H448Q438 0 431 7T424 25V298Q424 351 398 380T324
410Q277 410 249 381T220 298V25Q220 14 213 7T196 0H88Z" />
<glyph unicode="i" horiz-adv-x="274" d="M87 0Q77 0 70 7T63 25V495Q63 506 70 513T87 520H187Q198 520 205 513T212 495V25Q212 14 205 7T187 0H87ZM84 600Q74 600 67 607T60 625V705Q60 716 67 723T84 731H189Q200 731 207 724T215 705V625Q215 614 208 607T189
600H84Z" />
<glyph unicode="j" horiz-adv-x="290" d="M-24 -190Q-35 -190 -42 -183T-49 -165V-97Q-49 -86 -42 -79T-24 -72H8Q35 -72 49 -62T69 -33T74 7V495Q74 506 81 513T98 520H203Q213 520 220 513T227 495V4Q227 -57 204 -100T136 -167T23 -190H-24ZM95 600Q85 600
78 607T71 625V705Q71 716 78 723T95 731H205Q216 731 223 724T230 705V625Q230 614 223 607T205 600H95Z" />
<glyph unicode="k" horiz-adv-x="567" d="M88 0Q77 0 70 7T63 25V685Q63 696 70 703T88 710H186Q196 710 203 703T210 685V347L364 503Q372 510 378 515T399 520H512Q522 520 528 514T534 498Q534 494 532 489T525 481L332 287L550 38Q559 30 559 22Q559 13 553
7T537 0H421Q406 0 400 5T385 17L210 213V25Q210 14 203 7T186 0H88Z" />
<glyph unicode="l" horiz-adv-x="275" d="M88 0Q77 0 70 7T63 25V685Q63 696 70 703T88 710H188Q198 710 205 703T212 685V25Q212 14 205 7T188 0H88Z" />
<glyph unicode="m" horiz-adv-x="909" d="M87 0Q77 0 70 7T63 25V495Q63 506 70 513T87 520H180Q190 520 197 513T205 495V461Q225 489 260 509T345 530Q461 532 504 442Q527 481 570 505T666 530Q718 530 760 507T826 435T851 310V25Q851 14 844 7T827 0H728Q718
0 711 7T704 25V302Q704 343 692 366T661 400T617 410Q596 410 577 400T545 367T532 302V25Q532 14 525 7T507 0H409Q398 0 391 7T384 25V302Q384 343 372 366T341 400T298 410Q277 410 257 400T225 366T212 303V25Q212 14 205 7T188 0H87Z" />
<glyph unicode="n" horiz-adv-x="633" d="M87 0Q77 0 70 7T63 25V495Q63 506 70 513T87 520H185Q196 520 203 513T210 495V456Q236 488 277 509T377 530Q436 530 480 504T550 427T576 304V25Q576 14 569 7T551 0H445Q434 0 427 7T420 25V298Q420 351 395 380T320
410Q273 410 245 381T217 298V25Q217 14 210 7T193 0H87Z" />
<glyph unicode="o" horiz-adv-x="601" d="M301 -10Q218 -10 162 17T77 96T44 215Q43 235 43 260T44 305Q47 374 78 424T165 502T301 530Q380 530 436 503T523 425T557 305Q559 286 559 261T557 215Q554 147 525 96T439 18T301 -10ZM301 100Q350 100 375 130T402
220Q403 235 403 260T402 300Q400 358 375 389T301 420Q252 420 227 389T199 300Q198 285 198 260T199 220Q201 161 226 131T301 100Z" />
<glyph unicode="p" horiz-adv-x="622" d="M88 -190Q77 -190 70 -183T63 -165V495Q63 506 70 513T88 520H183Q194 520 201 513T208 495V457Q232 489 270 509T365 530Q417 530 455 514T520 467T561 393T578 296Q579 277 579 260T578 223Q577 172 563 129T521 55T456
7T365 -10Q314 -10 277 8T215 59V-165Q215 -176 208 -183T191 -190H88ZM320 110Q358 110 380 126T411 170T423 229Q425 260 423 291Q421 323 412 350T380 393T320 410Q283 410 260 393T227 350T215 294Q214 276 214 257T215 219Q216 191 227 167T261 126T320 110Z"
/>
<glyph unicode="q" horiz-adv-x="622" d="M431 -190Q421 -190 414 -183T407 -165V59Q383 27 346 9T257 -10Q206 -10 167 7T101 55T60 129T44 223Q43 243 43 260T44 296Q46 350 60 393T101 466T167 513T257 530Q314 530 352 510T414 457V495Q414 506 421 513T439
520H534Q545 520 552 513T559 495V-165Q559 -176 552 -183T534 -190H431ZM302 110Q338 110 360 126T394 166T407 219Q408 238 408 257T407 294Q406 324 396 350T363 393T302 410Q265 410 243 394T211 350T199 291Q197 260 199 229Q201 197 210 170T242 127T302
110Z" />
<glyph unicode="r" horiz-adv-x="435" d="M87 0Q77 0 70 7T63 25V495Q63 505 70 512T87 520H185Q195 520 202 513T210 495V455Q235 486 271 503T356 520H399Q409 520 416 513T423 495V409Q423 398 416 391T399 384H311Q267 384 242 360T217 290V25Q217 14 210
7T192 0H87Z" />
<glyph unicode="s" horiz-adv-x="542" d="M268 -10Q206 -10 162 4T90 40T49 82T34 119Q33 130 41 137T57 144H154Q157 144 160 143T166 138Q179 129 193 118T225 98T272 90Q305 90 328 103T351 142Q351 160 341 172T301 194T215 216Q161 228 123 248T66 298T47
372Q47 411 71 447T144 506T264 530Q319 530 360 517T430 483T472 441T488 403Q489 393 482 386T466 379H377Q372 379 368 380T361 385Q349 393 337 403T307 422T263 430Q230 430 213 416T195 379Q195 365 204 353T241 331T326 310Q394 298 434 274T491 219T509
151Q509 104 481 68T400 11T268 -10Z" />
<glyph unicode="t" horiz-adv-x="448" d="M313 0Q251 0 207 20T141 84T118 192V402H40Q29 402 22 409T15 427V495Q15 506 22 513T40 520H118V685Q118 696 125 703T143 710H241Q252 710 259 703T266 685V520H391Q401 520 408 513T415 495V427Q415 416 408 409T391
402H266V204Q266 166 279 145T327 123H400Q410 123 417 116T424 99V25Q424 14 417 7T400 0H313Z" />
<glyph unicode="u" horiz-adv-x="631" d="M254 -10Q196 -10 152 16T83 93T58 216V495Q58 506 65 513T82 520H188Q199 520 206 513T213 495V222Q213 110 311 110Q358 110 385 139T413 222V495Q413 506 420 513T438 520H544Q554 520 561 513T568 495V25Q568 14 561
7T544 0H446Q435 0 428 7T421 25V64Q395 28 354 9T254 -10Z" />
<glyph unicode="v" horiz-adv-x="584" d="M247 0Q232 0 225 7T212 25L24 489Q22 493 22 498Q22 507 28 513T44 520H141Q154 520 160 513T169 500L292 170L415 500Q418 506 424 513T443 520H540Q549 520 555 514T562 498Q562 493 561 489L372 25Q368 15 360 8T337 0H247Z" />
<glyph unicode="w" horiz-adv-x="829" d="M206 0Q192 0 185 7T173 25L30 488Q28 493 28 498Q28 507 34 513T50 520H138Q151 520 158 513T167 500L258 191L355 498Q357 505 364 512T386 520H443Q457 520 464 513T474 498L571 191L662 500Q663 506 670 513T690 520H778Q787
520 793 514T800 498Q800 493 799 488L655 25Q652 14 645 7T623 0H546Q532 0 524 7T512 25L415 321L316 25Q313 14 305 7T283 0H206Z" />
<glyph unicode="x" horiz-adv-x="575" d="M41 0Q32 0 26 6T19 22Q19 25 20 29T25 38L194 267L39 482Q36 486 35 490T33 498Q33 507 39 513T55 520H159Q171 520 177 514T187 503L290 363L393 502Q397 507 403 513T422 520H521Q530 520 536 514T543 498Q543 494
542 490T537 482L379 266L550 38Q553 34 554 30T556 22Q556 13 550 7T534 0H425Q414 0 408 5T398 16L287 164L174 16Q171 12 165 6T147 0H41Z" />
<glyph unicode="y" horiz-adv-x="585" d="M158 -190Q150 -190 144 -184T137 -169Q137 -167 138 -164T141 -155L219 32L27 485Q24 493 24 498Q25 507 31 513T46 520H143Q156 520 162 514T171 500L295 190L422 500Q426 508 432 514T451 520H546Q555 520 561 514T568
499Q568 494 564 485L281 -170Q278 -178 272 -184T252 -190H158Z" />
<glyph unicode="z" horiz-adv-x="541" d="M63 0Q53 0 46 7T39 25V92Q39 102 43 110T54 125L299 404H72Q61 404 54 411T47 428V495Q47 506 54 513T72 520H462Q473 520 480 513T487 495V423Q487 414 483 407T473 393L233 116H483Q493 116 500 109T507 92V25Q507
14 500 7T483 0H63Z" />
<glyph unicode="{" horiz-adv-x="411" d="M359 -158Q300 -158 254 -140T175 -86T125 5T108 131Q108 175 95 204T53 248L42 253Q15 268 15 293V325Q15 350 42 365L53 370Q82 386 95 414T108 487Q108 559 125 613T174 703T253 757T358 776H364Q373 776 379 770T386
754V677Q386 667 380 661T365 655H361Q318 652 293 633T256 575T245 471Q245 409 225 367T171 309Q193 299 209 276T235 219T245 147Q245 84 256 44T292 -15T360 -37H365Q374 -38 380 -44T386 -59V-136Q386 -146 380 -152T364 -158H359Z" />
<glyph unicode="|" horiz-adv-x="256" d="M90 -208Q79 -208 72 -201T65 -183V871Q65 882 72 889T90 896H167Q177 896 184 889T191 871V-183Q191 -194 184 -201T167 -208H90Z" />
<glyph unicode="}" horiz-adv-x="411" d="M52 776Q111 775 157 757T236 703T286 613T303 487Q303 442 316 414T358 369L369 364Q396 350 396 325V292Q396 267 369 253L357 247Q329 232 316 203T303 131Q303 58 286 5T237 -85T158 -139T53 -158H47Q37 -158 31 -152T25
-136V-59Q25 -50 31 -44T45 -37H49Q93 -34 118 -16T155 43T166 146Q166 209 186 250T240 309Q218 320 201 343T175 398T166 471Q166 535 155 574T119 633T50 654L45 655Q37 655 31 661T25 677V754Q25 763 31 769T47 776H52Z" />
<glyph unicode="~" horiz-adv-x="556" d="M83 221Q72 221 68 228T63 248V315Q63 332 78 347T117 372T173 382Q208 382 233 376T282 363T329 350T385 344Q412 344 430 354T458 372Q462 375 465 376T474 379Q485 379 489 372T494 352V285Q494 268 479 253T440 227T384
217Q350 217 324 223T276 236T229 250T172 256Q145 256 127 245T99 227Q95 225 92 223T83 221Z" />
<glyph unicode="&#xa0;" horiz-adv-x="221" />
<glyph unicode="&#xa1;" horiz-adv-x="272" d="M185 311Q196 311 203 304T210 286V-157Q210 -168 203 -175T185 -182H88Q77 -182 70 -175T63 -157V286Q63 297 70 304T88 311H185ZM191 518Q201 518 208 511T215 493V386Q215 375 208 368T191 361H83Q72 361 65 368T58
386V493Q58 504 65 511T83 518H191Z" />
<glyph unicode="&#xa2;" horiz-adv-x="587" d="M250 -100Q239 -100 232 -93T225 -75V-2Q145 13 97 70T45 219Q44 235 44 259T45 300Q48 391 96 448T225 522V585Q225 596 232 603T250 610H334Q344 610 351 603T358 585V523Q409 514 445 493T503 446T535 395T547
353Q548 343 540 336T522 328H416Q405 328 400 333T389 349Q375 384 352 399T295 414Q253 414 228 385T200 295Q198 256 200 224Q202 162 227 134T295 106Q330 106 353 121T389 171Q394 181 399 186T416 192H522Q532 192 540 185T547 167Q546 152 536 127T504 76T446
28T358 -3V-75Q358 -86 351 -93T334 -100H250Z" />
<glyph unicode="&#xa3;" horiz-adv-x="709" d="M486 -8Q452 -8 425 0T373 20T328 44T285 65T241 73Q209 73 194 58T171 15Q170 10 167 5T153 0H63Q55 0 50 5T44 18Q46 83 77 126T157 187Q156 210 153 233T145 282H69Q59 282 52 289T45 306V371Q45 382 52 389T69
396H121Q120 409 120 422T119 451Q119 531 149 589T238 679T385 711Q468 711 529 682T624 601T659 480Q659 471 653 465T637 458H524Q512 458 504 464T492 483Q480 531 455 556T384 582Q333 582 308 546T283 450Q283 436 283 423T286 396H447Q457 396 464 389T471
371V306Q471 296 464 289T447 282H293Q295 258 298 235T300 184Q327 179 348 169T386 147T423 128T465 120Q501 120 518 138T546 185Q548 189 552 194T564 199H644Q653 199 658 194T663 180Q662 120 637 78T572 14T486 -8Z" />
<glyph unicode="&#xa4;" horiz-adv-x="607" d="M106 58L62 103Q55 110 55 120T62 137L107 182Q73 234 73 300Q73 365 107 418L62 463Q55 470 55 480T62 497L106 542Q113 549 123 549T140 542L185 497Q211 513 240 522T303 531Q336 531 366 522T422 497L466 542Q474
549 483 549T501 542L545 497Q553 490 553 480T545 463L500 418Q516 393 525 363T534 300Q534 267 525 237T500 182L545 137Q553 130 553 120T545 103L501 58Q493 51 484 51T466 58L422 103Q369 69 303 69Q237 69 185 103L140 58Q133 51 123 51T106 58ZM303 181Q337
181 364 197T407 240T423 300Q423 333 407 360T364 403T303 419Q270 419 243 403T200 360T184 300Q184 267 200 240T243 197T303 181Z" />
<glyph unicode="&#xa5;" horiz-adv-x="670" d="M280 0Q269 0 262 7T255 25V256L32 668Q31 671 30 673T29 679Q29 687 35 693T50 700H157Q171 700 179 693T190 680L335 419L480 680Q483 686 491 693T513 700H620Q628 700 634 694T641 679Q641 676 640 674T638 668L415
257V25Q415 14 408 7T390 0H280ZM123 77Q113 77 106 84T99 101V169Q99 179 106 186T123 193H547Q558 193 565 186T572 169V101Q572 91 565 84T547 77H123ZM123 222Q113 222 106 229T99 247V314Q99 325 106 332T123 339H547Q558 339 565 332T572 314V247Q572 237
565 230T547 222H123Z" />
<glyph unicode="&#xa6;" horiz-adv-x="261" d="M92 475Q82 475 75 482T68 500V804Q68 815 75 822T92 829H169Q180 829 187 822T194 804V500Q194 489 187 482T169 475H92ZM92 0Q82 0 75 7T68 25V329Q68 340 75 347T92 354H169Q180 354 187 347T194 329V25Q194 14
187 7T169 0H92Z" />
<glyph unicode="&#xa7;" horiz-adv-x="596" d="M290 -140Q234 -140 192 -126T121 -90T78 -42T62 6Q61 16 67 21T83 27H177Q186 27 192 23T203 11Q209 0 217 -10T243 -27T288 -34Q325 -34 342 -15T360 30Q360 50 351 64T316 89T237 114Q164 134 120 160T56 223T36
312Q36 355 56 388T109 446Q98 463 93 483T88 526Q88 574 112 616T185 684T306 710Q381 710 431 686T507 629T534 565Q535 555 529 550T512 544H419Q409 544 403 548T391 561Q386 571 378 581T353 597T307 604Q271 604 253 585T235 540Q235 520 244 506T279 481T359
456Q432 436 476 410T540 347T560 258Q560 215 540 182T487 124Q498 107 503 87T508 44Q508 -4 484 -46T411 -114T290 -140ZM378 196Q400 204 411 218T423 252Q423 272 415 287T383 316T315 341Q283 351 261 358T218 374Q195 366 184 352T172 318Q172 299 180 284T213
255T282 228Q329 214 378 196Z" />
<glyph unicode="&#xa8;" horiz-adv-x="444" d="M279 611Q269 611 263 617T257 633V715Q257 725 263 731T279 738H361Q371 738 377 732T384 715V633Q384 623 378 617T361 611H279ZM82 611Q72 611 66 617T60 633V715Q60 725 66 731T82 738H164Q174 738 180 732T187
715V633Q187 623 181 617T164 611H82Z" />
<glyph unicode="&#xa9;" horiz-adv-x="812" d="M406 -10Q331 -10 266 18T152 95T74 210T46 350Q46 425 74 490T151 604T266 682T406 710Q481 710 546 682T660 605T738 490T766 350Q766 275 738 210T661 96T546 18T406 -10ZM406 66Q465 66 515 88T604 149T664 240T686
350Q686 408 664 460T604 551T516 612T406 634Q348 634 298 612T209 551T149 460T127 350Q127 292 148 240T208 149T297 88T406 66ZM406 158Q355 158 318 178T260 234T238 314Q238 322 238 336T237 365T238 388Q240 433 260 468T317 523T406 544Q465 544 502 525T558
479T577 426Q577 416 571 410T555 404H497Q486 404 481 410T473 424Q465 443 450 452T406 462Q379 462 365 450T345 420T338 385Q338 378 338 365T337 338T338 317Q339 300 344 282T364 252T406 240Q434 240 449 249T473 278Q476 285 481 291T497 298H555Q565 298
571 292T577 276Q576 251 558 224T503 177T406 158Z" />
<glyph unicode="&#xaa;" horiz-adv-x="359" d="M136 429Q93 429 67 452T40 508Q40 547 70 569T153 600L211 609Q211 616 209 623T201 635T178 640Q164 640 156 636T142 627T126 622H73Q66 622 62 625T58 636Q59 648 73 664T114 692T181 705Q241 705 272 677T304
596V452Q304 444 299 439T286 434H232Q224 434 219 439T213 452V462Q204 447 183 438T136 429ZM158 494Q186 494 198 510T211 551L174 544Q147 539 138 531T129 513Q129 504 137 499T158 494Z" />
<glyph unicode="&#xab;" horiz-adv-x="618" d="M541 71Q537 71 533 73T522 80L319 277Q311 284 308 292T304 308V350Q304 358 307 366T319 381L522 578Q528 583 532 585T541 587Q550 587 556 581T562 565V485Q562 470 558 462T544 444L426 329L544 214Q554 204
558 196T562 173V93Q562 84 556 78T541 71ZM271 71Q267 71 262 73T252 80L49 277Q41 284 38 292T34 308V350Q34 358 37 366T49 381L252 578Q257 583 262 585T271 587Q280 587 286 581T292 565V485Q292 470 288 462T274 444L156 329L274 214Q284 204 288 196T292
173V93Q292 84 286 78T271 71Z" />
<glyph unicode="&#xac;" horiz-adv-x="572" d="M415 141Q405 141 398 148T391 165V265H83Q73 265 66 272T59 290V356Q59 367 66 374T83 381H484Q494 381 501 374T508 356V165Q508 155 501 148T484 141H415Z" />
<glyph unicode="&#xad;" horiz-adv-x="600" d="M84 236Q74 236 67 243T60 260V340Q60 350 67 357T84 364H395Q405 364 412 357T419 340V260Q419 250 412 243T395 236H84Z" />
<glyph unicode="&#xae;" horiz-adv-x="812" d="M406 -10Q331 -10 266 18T152 95T74 210T46 350Q46 425 74 490T151 604T266 682T406 710Q481 710 546 682T660 605T738 490T766 350Q766 275 738 210T661 96T546 18T406 -10ZM406 66Q465 66 515 88T604 149T664 240T686
350Q686 408 664 460T604 551T516 612T406 634Q348 634 298 612T209 551T149 460T127 350Q127 292 148 240T208 149T297 88T406 66ZM284 168Q262 168 262 190V512Q262 534 284 534H421Q459 534 493 523T548 485T570 413Q570 373 552 348T506 310L562 204Q564 201
565 198T566 190Q566 182 561 175T544 168H494Q484 168 477 172T465 187L413 292H359V190Q359 168 337 168H284ZM359 371H420Q449 371 460 384T471 413Q471 431 460 443T420 456H359V371Z" />
<glyph unicode="&#xaf;" horiz-adv-x="429" d="M82 608Q72 608 66 614T60 631V691Q60 701 66 707T82 713H347Q357 713 363 707T369 691V631Q369 620 363 614T347 608H82Z" />
<glyph unicode="&#xb0;" horiz-adv-x="405" d="M202 386Q157 386 119 407T59 466T36 548Q36 594 58 631T119 689T202 710Q249 710 286 689T346 631T369 548Q369 503 347 466T287 408T202 386ZM202 472Q236 472 257 493T278 548Q278 582 257 603T202 624Q168 624
147 603T126 548Q126 514 147 493T202 472Z" />
<glyph unicode="&#xb1;" horiz-adv-x="566" d="M248 189Q238 189 231 196T224 214V363H78Q68 363 61 370T54 388V451Q54 461 61 468T78 475H224V620Q224 630 231 637T248 644H319Q329 644 336 637T343 620V475H488Q499 475 506 468T513 451V388Q513 377 506 370T488
363H343V214Q343 203 336 196T319 189H248ZM88 0Q78 0 71 7T64 25V87Q64 98 71 105T88 112H478Q489 112 496 105T503 87V25Q503 14 496 7T478 0H88Z" />
<glyph unicode="&#xb2;" horiz-adv-x="352" d="M49 350Q27 350 27 372V403Q27 411 32 418T51 436Q109 479 145 505T198 550T215 590Q215 607 205 617T174 627Q156 627 148 622T135 609T128 597Q122 586 117 583T104 579H53Q34 579 35 598Q37 628 55 652T105 690T174
705Q236 705 273 674T310 593Q310 561 295 536T250 486T176 430H303Q325 430 325 408V372Q325 350 303 350H49Z" />
<glyph unicode="&#xb3;" horiz-adv-x="351" d="M170 345Q117 345 86 359T40 394T23 434Q22 444 29 448T40 453H76Q85 453 92 451T107 446Q116 442 121 437T136 428T167 424Q192 424 206 433T221 459Q221 478 207 485T170 492H125Q116 492 110 498T104 513V536Q104
543 107 548T115 558L179 617H62Q40 617 40 639V678Q40 700 62 700H281Q303 700 303 678V644Q303 635 301 629T288 614L223 560Q270 553 295 527T321 457Q321 406 280 376T170 345Z" />
<glyph unicode="&#xb4;" horiz-adv-x="382" d="M76 595Q60 595 60 611Q60 619 65 624L150 727Q159 739 166 742T187 746H302Q321 746 321 726Q321 719 316 714L187 609Q179 602 172 599T151 595H76Z" />
<glyph unicode="&#xb5;" horiz-adv-x="644" d="M89 -199Q78 -199 71 -192T64 -175V495Q64 506 71 513T89 520H198Q208 520 215 513T222 495V222Q222 187 236 162T274 124T324 110Q350 110 373 123T410 162T425 222V495Q425 506 432 513T450 520H556Q566 520 573
513T580 495V25Q580 14 573 7T556 0H458Q447 0 440 7T433 25V64Q416 41 392 25T331 4Q296 1 270 9T222 34V-175Q222 -185 215 -192T198 -199H89Z" />
<glyph unicode="&#xb6;" horiz-adv-x="603" d="M239 -100Q229 -100 222 -93T215 -75V325Q163 325 121 350T53 418T27 513Q27 565 52 607T120 674T215 700H508Q518 700 525 693T532 675V-75Q532 -86 525 -93T508 -100H438Q427 -100 420 -93T413 -75V595H334V-75Q334
-86 327 -93T310 -100H239Z" />
<glyph unicode="&#xb7;" horiz-adv-x="330" d="M165 190Q132 190 105 206T61 250T44 310Q44 344 60 371T104 414T165 431Q199 431 226 415T269 371T286 310Q286 278 270 250T226 206T165 190Z" />
<glyph unicode="&#xb8;" horiz-adv-x="301" d="M144 -220Q117 -220 96 -211T65 -190T65 -169L82 -153Q91 -145 97 -148T114 -158T144 -164Q160 -164 170 -155T180 -132Q180 -119 170 -110T144 -101Q132 -101 122 -104T103 -109T87 -103L69 -84Q63 -78 64 -71T70
-52L105 27H168L128 -51Q134 -48 144 -47T162 -45Q198 -45 219 -69T241 -131Q241 -169 216 -194T144 -220Z" />
<glyph unicode="&#xb9;" horiz-adv-x="285" d="M147 350Q125 350 125 372V588L71 547Q64 542 55 543T40 552L17 583Q11 591 12 599T21 614L125 693Q135 700 148 700H200Q222 700 222 678V372Q222 350 200 350H147Z" />
<glyph unicode="&#xba;" horiz-adv-x="355" d="M178 429Q115 429 81 457T43 540Q42 548 42 567T43 594Q46 648 82 676T178 705Q237 705 273 677T313 594Q314 587 314 568T313 540Q310 486 276 458T178 429ZM178 499Q198 499 207 510T218 545Q219 553 219 567T218
589Q217 611 208 623T178 635Q158 635 149 623T137 589Q136 582 136 568T137 545Q139 521 148 510T178 499Z" />
<glyph unicode="&#xbb;" horiz-adv-x="618" d="M347 71Q338 71 332 77T326 93V173Q326 188 330 196T344 214L462 329L344 444Q334 454 330 462T326 485V565Q326 574 332 580T347 587Q350 587 355 585T366 578L569 381Q577 374 580 366T584 350V308Q584 300 581
292T569 277L366 80Q361 75 356 73T347 71ZM77 71Q68 71 62 77T56 93V173Q56 188 60 196T74 214L192 329L74 444Q64 454 60 462T56 485V565Q56 574 62 580T77 587Q80 587 85 585T96 578L299 381Q307 374 310 366T314 350V308Q314 300 311 292T299 277L96 80Q91
75 86 73T77 71Z" />
<glyph unicode="&#xbc;" horiz-adv-x="827" d="M147 350Q125 350 125 372V588L71 547Q64 542 55 543T40 552L17 583Q11 591 12 599T21 614L125 693Q135 700 148 700H200Q222 700 222 678V372Q222 350 200 350H147ZM104 0Q82 0 82 20Q82 26 86 31L580 681Q587 690
594 695T614 700H660Q683 700 683 680Q683 674 679 669L185 19Q178 10 171 5T150 0H104ZM676 0Q654 0 654 22V60H504Q482 60 482 82V123Q482 125 483 133T494 153L627 332Q635 343 642 346T657 350H726Q748 350 748 328V144H783Q805 144 805 122V82Q805 60 783
60H748V22Q748 0 726 0H676ZM583 142H655V244L583 142Z" />
<glyph unicode="&#xbd;" horiz-adv-x="815" d="M147 350Q125 350 125 372V588L71 547Q64 542 55 543T40 552L17 583Q11 591 12 599T21 614L125 693Q135 700 148 700H200Q222 700 222 678V372Q222 350 200 350H147ZM104 0Q82 0 82 20Q82 26 86 31L580 681Q587 690
594 695T614 700H660Q683 700 683 680Q683 674 679 669L185 19Q178 10 171 5T150 0H104ZM511 0Q489 0 489 22V53Q489 61 494 68T513 86Q571 129 607 155T660 200T677 240Q677 257 667 267T636 277Q618 277 610 272T597 259T590 247Q584 236 579 233T566 229H515Q496
229 497 248Q499 278 517 302T567 340T636 355Q698 355 735 324T772 243Q772 211 757 186T712 136T638 80H765Q787 80 787 58V22Q787 0 765 0H511Z" />
<glyph unicode="&#xbe;" horiz-adv-x="894" d="M170 345Q117 345 86 359T40 394T23 434Q22 444 29 448T40 453H76Q85 453 92 451T107 446Q116 442 121 437T136 428T167 424Q192 424 206 433T221 459Q221 478 207 485T170 492H125Q116 492 110 498T104 513V536Q104
543 107 548T115 558L179 617H62Q40 617 40 639V678Q40 700 62 700H281Q303 700 303 678V644Q303 635 301 629T288 614L223 560Q270 553 295 527T321 457Q321 406 280 376T170 345ZM170 0Q148 0 148 20Q148 26 152 31L646 681Q653 690 660 695T680 700H726Q749
700 749 680Q749 674 745 669L251 19Q244 10 237 5T216 0H170ZM742 0Q720 0 720 22V60H570Q548 60 548 82V123Q548 125 549 133T560 153L693 332Q701 343 708 346T723 350H792Q814 350 814 328V144H849Q871 144 871 122V82Q871 60 849 60H814V22Q814 0 792 0H742ZM649
142H721V244L649 142Z" />
<glyph unicode="&#xbf;" horiz-adv-x="574" d="M341 320Q350 320 355 314T361 300Q361 293 361 286T361 272Q356 235 339 206T298 151T251 104T212 61T194 17Q192 -8 204 -26T238 -53T284 -63Q328 -63 354 -42T391 24Q395 36 402 41T421 47H524Q534 47 541 40T548
22Q547 -18 529 -56T476 -124T391 -173T275 -191Q203 -191 155 -173T79 -127T39 -66T29 -4Q30 33 44 62T79 117T122 165T162 213T188 263Q189 271 190 278T193 294Q199 307 205 313T223 320H341ZM341 519Q352 519 359 512T366 494V394Q366 384 359 377T341 369H229Q219
369 212 376T204 394V494Q204 505 211 512T229 519H341Z" />
<glyph unicode="&#xc0;" horiz-adv-x="704" d="M33 0Q24 0 18 6T12 21Q12 26 13 30L251 673Q254 684 263 692T288 700H416Q432 700 441 692T453 673L691 30Q692 26 692 21Q692 13 686 7T671 0H567Q552 0 545 7T536 20L493 132H211L168 20Q166 14 159 7T137 0H33ZM248
261H455L352 549L248 261ZM327 750Q314 750 306 753T290 764L162 869Q157 874 157 881Q157 901 176 901H299Q312 901 319 898T336 882L421 779Q426 774 426 766Q426 750 410 750H327Z" />
<glyph unicode="&#xc1;" horiz-adv-x="704" d="M33 0Q24 0 18 6T12 21Q12 26 13 30L251 673Q254 684 263 692T288 700H416Q432 700 441 692T453 673L691 30Q692 26 692 21Q692 13 686 7T671 0H567Q552 0 545 7T536 20L493 132H211L168 20Q166 14 159 7T137 0H33ZM248
261H455L352 549L248 261ZM299 750Q283 750 283 766Q283 774 288 779L373 882Q382 894 389 897T410 901H533Q552 901 552 881Q552 874 547 869L418 764Q410 757 402 754T381 750H299Z" />
<glyph unicode="&#xc2;" horiz-adv-x="704" d="M33 0Q24 0 18 6T12 21Q12 26 13 30L251 673Q254 684 263 692T288 700H416Q432 700 441 692T453 673L691 30Q692 26 692 21Q692 13 686 7T671 0H567Q552 0 545 7T536 20L493 132H211L168 20Q166 14 159 7T137 0H33ZM248
261H455L352 549L248 261ZM189 750Q174 750 174 764Q174 772 182 780L282 884Q293 895 300 898T317 901H388Q398 901 405 898T423 884L522 780Q531 772 531 764Q531 750 516 750H471Q463 750 455 751T439 757L352 808L266 757Q259 753 251 752T234 750H189Z" />
<glyph unicode="&#xc3;" horiz-adv-x="704" d="M33 0Q24 0 18 6T12 21Q12 26 13 30L251 673Q254 684 263 692T288 700H416Q432 700 441 692T453 673L691 30Q692 26 692 21Q692 13 686 7T671 0H567Q552 0 545 7T536 20L493 132H211L168 20Q166 14 159 7T137 0H33ZM248
261H455L352 549L248 261ZM410 745Q384 745 366 754T334 771T303 780Q290 780 284 773T273 758T257 750H204Q197 750 192 755T187 767Q187 783 192 803T211 842T244 873T293 886Q320 886 337 877T369 859T401 850Q414 850 419 858T430 873T446 881H499Q508 881
512 876T517 863Q517 848 511 828T492 789T459 758T410 745Z" />
<glyph unicode="&#xc4;" horiz-adv-x="704" d="M33 0Q24 0 18 6T12 21Q12 26 13 30L251 673Q254 684 263 692T288 700H416Q432 700 441 692T453 673L691 30Q692 26 692 21Q692 13 686 7T671 0H567Q552 0 545 7T536 20L493 132H211L168 20Q166 14 159 7T137 0H33ZM248
261H455L352 549L248 261ZM424 750Q414 750 408 756T402 773V855Q402 865 408 871T424 878H506Q516 878 522 872T529 855V773Q529 762 523 756T506 750H424ZM197 750Q187 750 181 756T175 773V855Q175 865 181 871T197 878H279Q289 878 295 872T302 855V773Q302
762 296 756T279 750H197Z" />
<glyph unicode="&#xc5;" horiz-adv-x="704" d="M33 0Q24 0 18 6T12 21Q12 26 13 30L251 673Q254 684 263 692T288 700H416Q432 700 441 692T453 673L691 30Q692 26 692 21Q692 13 686 7T671 0H567Q552 0 545 7T536 20L493 132H211L168 20Q166 14 159 7T137 0H33ZM248
261H455L352 549L248 261ZM352 740Q315 740 289 764T262 825Q262 862 288 886T352 911Q389 911 415 887T442 825Q442 788 416 764T352 740ZM352 795Q365 795 373 803T382 825Q382 838 374 846T352 855Q339 855 331 847T322 825Q322 812 330 804T352 795Z" />
<glyph unicode="&#xc6;" horiz-adv-x="964" d="M26 0Q17 0 11 6T4 21Q4 26 7 31Q17 59 27 88T52 154T88 237T138 346T207 489T300 674Q304 685 313 692T335 700H885Q896 700 903 693T910 675V595Q910 585 903 578T885 571H576V414H863Q874 414 881 407T888 389V315Q888
305 881 298T863 291H576V129H893Q904 129 911 122T918 104V25Q918 14 911 7T893 0H447Q437 0 430 7T423 25V132H218Q201 99 191 79T175 47T167 30T162 20Q159 13 152 7T132 0H26ZM261 261H423V567H406L261 261Z" />
<glyph unicode="&#xc7;" horiz-adv-x="693" d="M347 -220Q321 -220 299 -211T268 -190T268 -169L286 -153Q295 -145 301 -148T318 -158T347 -164Q363 -164 373 -155T383 -132Q383 -119 373 -110T347 -101Q335 -101 325 -104T307 -109T291 -103L272 -84Q266 -78
267 -71T273 -52L293 -6Q218 3 165 36T84 126T51 261Q50 302 50 349T51 439Q55 525 91 585T194 678T352 710Q419 710 474 693T569 644T631 569T655 473Q655 464 649 458T633 452H519Q507 452 500 458T489 478Q474 537 439 559T352 581Q290 581 254 547T215 434Q212
352 215 266Q218 187 254 153T352 119Q404 119 439 141T489 222Q493 237 500 242T519 248H633Q642 248 648 242T655 227Q653 174 631 131T569 56T474 7T352 -10L332 -51Q338 -48 348 -47T365 -45Q401 -45 422 -69T444 -131Q444 -169 419 -194T347 -220Z" />
<glyph unicode="&#xc8;" horiz-adv-x="630" d="M99 0Q88 0 81 7T74 25V675Q74 686 81 693T99 700H552Q563 700 570 693T577 675V595Q577 585 570 578T552 571H228V414H530Q541 414 548 407T555 389V315Q555 305 548 298T530 291H228V129H560Q571 129 578 122T585
104V25Q585 14 578 7T560 0H99ZM291 750Q278 750 270 753T254 764L126 869Q121 874 121 881Q121 901 140 901H263Q276 901 283 898T300 882L385 779Q390 774 390 766Q390 750 374 750H291Z" />
<glyph unicode="&#xc9;" horiz-adv-x="630" d="M99 0Q88 0 81 7T74 25V675Q74 686 81 693T99 700H552Q563 700 570 693T577 675V595Q577 585 570 578T552 571H228V414H530Q541 414 548 407T555 389V315Q555 305 548 298T530 291H228V129H560Q571 129 578 122T585
104V25Q585 14 578 7T560 0H99ZM262 750Q246 750 246 766Q246 774 251 779L336 882Q345 894 352 897T373 901H496Q515 901 515 881Q515 874 510 869L381 764Q373 757 365 754T344 750H262Z" />
<glyph unicode="&#xca;" horiz-adv-x="630" d="M99 0Q88 0 81 7T74 25V675Q74 686 81 693T99 700H552Q563 700 570 693T577 675V595Q577 585 570 578T552 571H228V414H530Q541 414 548 407T555 389V315Q555 305 548 298T530 291H228V129H560Q571 129 578 122T585
104V25Q585 14 578 7T560 0H99ZM152 750Q137 750 137 764Q137 772 145 780L245 884Q256 895 263 898T280 901H351Q361 901 368 898T386 884L485 780Q494 772 494 764Q494 750 479 750H434Q426 750 418 751T402 757L315 808L229 757Q222 753 214 752T197 750H152Z"
/>
<glyph unicode="&#xcb;" horiz-adv-x="630" d="M99 0Q88 0 81 7T74 25V675Q74 686 81 693T99 700H552Q563 700 570 693T577 675V595Q577 585 570 578T552 571H228V414H530Q541 414 548 407T555 389V315Q555 305 548 298T530 291H228V129H560Q571 129 578 122T585
104V25Q585 14 578 7T560 0H99ZM387 750Q377 750 371 756T365 773V855Q365 865 371 871T387 878H469Q479 878 485 872T492 855V773Q492 762 486 756T469 750H387ZM160 750Q150 750 144 756T138 773V855Q138 865 144 871T160 878H242Q252 878 258 872T265 855V773Q265
762 259 756T242 750H160Z" />
<glyph unicode="&#xcc;" horiz-adv-x="311" d="M99 0Q88 0 81 7T74 25V675Q74 686 81 693T99 700H212Q223 700 230 693T237 675V25Q237 14 230 7T212 0H99ZM131 750Q118 750 110 753T94 764L-34 869Q-39 874 -39 881Q-39 901 -20 901H103Q116 901 123 898T140
882L225 779Q230 774 230 766Q230 750 214 750H131Z" />
<glyph unicode="&#xcd;" horiz-adv-x="311" d="M99 0Q88 0 81 7T74 25V675Q74 686 81 693T99 700H212Q223 700 230 693T237 675V25Q237 14 230 7T212 0H99ZM358 750Q342 750 342 766Q342 774 347 779L432 882Q441 894 448 897T469 901H592Q611 901 611 881Q611
874 606 869L477 764Q469 757 461 754T440 750H358Z" />
<glyph unicode="&#xce;" horiz-adv-x="311" d="M99 0Q88 0 81 7T74 25V675Q74 686 81 693T99 700H212Q223 700 230 693T237 675V25Q237 14 230 7T212 0H99ZM248 750Q233 750 233 764Q233 772 241 780L341 884Q352 895 359 898T376 901H447Q457 901 464 898T482
884L581 780Q590 772 590 764Q590 750 575 750H530Q522 750 514 751T498 757L411 808L325 757Q318 753 310 752T293 750H248Z" />
<glyph unicode="&#xcf;" horiz-adv-x="311" d="M99 0Q88 0 81 7T74 25V675Q74 686 81 693T99 700H212Q223 700 230 693T237 675V25Q237 14 230 7T212 0H99ZM483 750Q473 750 467 756T461 773V855Q461 865 467 871T483 878H565Q575 878 581 872T588 855V773Q588
762 582 756T565 750H483ZM256 750Q246 750 240 756T234 773V855Q234 865 240 871T256 878H338Q348 878 354 872T361 855V773Q361 762 355 756T338 750H256Z" />
<glyph unicode="&#xd0;" horiz-adv-x="726" d="M114 0Q103 0 96 7T89 25V297H39Q29 297 22 304T14 322V382Q14 392 21 399T39 406H89V675Q89 686 96 693T114 700H365Q465 700 533 669T636 577T672 427Q673 387 673 351T672 274Q671 181 637 120T536 30T368 0H114ZM248
129H365Q416 129 447 144T493 191T508 276Q509 303 509 326T509 374T508 425Q508 500 474 535T363 571H248V406H350Q360 406 367 399T374 382V322Q374 311 367 304T350 297H248V129Z" />
<glyph unicode="&#xd1;" horiz-adv-x="713" d="M99 0Q88 0 81 7T74 25V675Q74 686 81 693T99 700H190Q205 700 212 693T221 682L488 265V675Q488 686 495 693T512 700H614Q625 700 632 693T639 675V25Q639 15 632 8T614 0H522Q507 0 501 7T491 18L225 422V25Q225
14 218 7T200 0H99ZM414 745Q388 745 370 754T338 771T307 780Q294 780 288 773T277 758T261 750H208Q201 750 196 755T191 767Q191 783 196 803T215 842T248 873T297 886Q324 886 341 877T373 859T405 850Q418 850 423 858T434 873T450 881H503Q512 881 516 876T521
863Q521 848 515 828T496 789T463 758T414 745Z" />
<glyph unicode="&#xd2;" horiz-adv-x="703" d="M352 -10Q261 -10 195 20T92 110T52 263Q51 306 51 348T52 435Q55 525 92 586T196 679T352 710Q440 710 506 679T611 587T651 435Q653 391 653 349T651 263Q648 171 611 111T508 20T352 -10ZM352 119Q410 119 447
154T487 268Q489 312 489 350T487 432Q486 484 468 517T421 565T352 581Q313 581 283 566T236 517T216 432Q215 389 215 351T216 268Q219 190 256 155T352 119ZM327 750Q314 750 306 753T290 764L162 869Q157 874 157 881Q157 901 176 901H299Q312 901 319 898T336
882L421 779Q426 774 426 766Q426 750 410 750H327Z" />
<glyph unicode="&#xd3;" horiz-adv-x="703" d="M352 -10Q261 -10 195 20T92 110T52 263Q51 306 51 348T52 435Q55 525 92 586T196 679T352 710Q440 710 506 679T611 587T651 435Q653 391 653 349T651 263Q648 171 611 111T508 20T352 -10ZM352 119Q410 119 447
154T487 268Q489 312 489 350T487 432Q486 484 468 517T421 565T352 581Q313 581 283 566T236 517T216 432Q215 389 215 351T216 268Q219 190 256 155T352 119ZM298 750Q282 750 282 766Q282 774 287 779L372 882Q381 894 388 897T409 901H532Q551 901 551 881Q551
874 546 869L417 764Q409 757 401 754T380 750H298Z" />
<glyph unicode="&#xd4;" horiz-adv-x="703" d="M352 -10Q261 -10 195 20T92 110T52 263Q51 306 51 348T52 435Q55 525 92 586T196 679T352 710Q440 710 506 679T611 587T651 435Q653 391 653 349T651 263Q648 171 611 111T508 20T352 -10ZM352 119Q410 119 447
154T487 268Q489 312 489 350T487 432Q486 484 468 517T421 565T352 581Q313 581 283 566T236 517T216 432Q215 389 215 351T216 268Q219 190 256 155T352 119ZM188 750Q173 750 173 764Q173 772 181 780L281 884Q292 895 299 898T316 901H387Q397 901 404 898T422
884L521 780Q530 772 530 764Q530 750 515 750H470Q462 750 454 751T438 757L351 808L265 757Q258 753 250 752T233 750H188Z" />
<glyph unicode="&#xd5;" horiz-adv-x="703" d="M352 -10Q261 -10 195 20T92 110T52 263Q51 306 51 348T52 435Q55 525 92 586T196 679T352 710Q440 710 506 679T611 587T651 435Q653 391 653 349T651 263Q648 171 611 111T508 20T352 -10ZM352 119Q410 119 447
154T487 268Q489 312 489 350T487 432Q486 484 468 517T421 565T352 581Q313 581 283 566T236 517T216 432Q215 389 215 351T216 268Q219 190 256 155T352 119ZM409 745Q383 745 365 754T333 771T302 780Q289 780 283 773T272 758T256 750H203Q196 750 191 755T186
767Q186 783 191 803T210 842T243 873T292 886Q319 886 336 877T368 859T400 850Q413 850 418 858T429 873T445 881H498Q507 881 511 876T516 863Q516 848 510 828T491 789T458 758T409 745Z" />
<glyph unicode="&#xd6;" horiz-adv-x="703" d="M352 -10Q261 -10 195 20T92 110T52 263Q51 306 51 348T52 435Q55 525 92 586T196 679T352 710Q440 710 506 679T611 587T651 435Q653 391 653 349T651 263Q648 171 611 111T508 20T352 -10ZM352 119Q410 119 447
154T487 268Q489 312 489 350T487 432Q486 484 468 517T421 565T352 581Q313 581 283 566T236 517T216 432Q215 389 215 351T216 268Q219 190 256 155T352 119ZM423 750Q413 750 407 756T401 773V855Q401 865 407 871T423 878H505Q515 878 521 872T528 855V773Q528
762 522 756T505 750H423ZM196 750Q186 750 180 756T174 773V855Q174 865 180 871T196 878H278Q288 878 294 872T301 855V773Q301 762 295 756T278 750H196Z" />
<glyph unicode="&#xd7;" horiz-adv-x="591" d="M124 60L57 127Q50 135 50 144T57 162L194 299L57 436Q50 443 50 453T57 470L124 538Q132 545 142 545T159 538L296 400L432 537Q440 545 449 545T467 537L534 470Q542 463 542 453T534 435L398 299L534 162Q542
155 542 145T534 128L467 60Q459 53 450 53T432 60L296 197L159 60Q152 53 142 53T124 60Z" />
<glyph unicode="&#xd8;" horiz-adv-x="703" d="M352 -10Q261 -10 195 20T92 110T52 263Q51 306 51 348T52 435Q55 525 92 586T196 679T352 710Q440 710 506 679T611 587T651 435Q653 391 653 349T651 263Q648 171 611 111T508 20T352 -10ZM352 119Q410 119 447
154T487 268Q489 312 489 350T487 432Q486 484 468 517T421 565T352 581Q313 581 283 566T236 517T216 432Q215 389 215 351T216 268Q219 190 256 155T352 119ZM91 191Q78 191 73 202T76 227L559 1007Q561 1010 566 1015T581 1021H614Q626 1021 631 1011T628 986L144
206Q142 203 137 197T121 191H91Z" />
<glyph unicode="&#xd9;" horiz-adv-x="719" d="M360 -10Q272 -10 206 19T104 110T68 267V675Q68 686 75 693T93 700H202Q213 700 220 693T227 675V268Q227 194 262 158T360 122Q422 122 457 158T492 268V675Q492 686 499 693T517 700H627Q637 700 644 693T651
675V267Q651 172 615 111T514 20T360 -10ZM335 750Q322 750 314 753T298 764L170 869Q165 874 165 881Q165 901 184 901H307Q320 901 327 898T344 882L429 779Q434 774 434 766Q434 750 418 750H335Z" />
<glyph unicode="&#xda;" horiz-adv-x="719" d="M360 -10Q272 -10 206 19T104 110T68 267V675Q68 686 75 693T93 700H202Q213 700 220 693T227 675V268Q227 194 262 158T360 122Q422 122 457 158T492 268V675Q492 686 499 693T517 700H627Q637 700 644 693T651
675V267Q651 172 615 111T514 20T360 -10ZM307 750Q291 750 291 766Q291 774 296 779L381 882Q390 894 397 897T418 901H541Q560 901 560 881Q560 874 555 869L426 764Q418 757 410 754T389 750H307Z" />
<glyph unicode="&#xdb;" horiz-adv-x="719" d="M360 -10Q272 -10 206 19T104 110T68 267V675Q68 686 75 693T93 700H202Q213 700 220 693T227 675V268Q227 194 262 158T360 122Q422 122 457 158T492 268V675Q492 686 499 693T517 700H627Q637 700 644 693T651
675V267Q651 172 615 111T514 20T360 -10ZM196 750Q181 750 181 764Q181 772 189 780L289 884Q300 895 307 898T324 901H395Q405 901 412 898T430 884L529 780Q538 772 538 764Q538 750 523 750H478Q470 750 462 751T446 757L359 808L273 757Q266 753 258 752T241
750H196Z" />
<glyph unicode="&#xdc;" horiz-adv-x="719" d="M360 -10Q272 -10 206 19T104 110T68 267V675Q68 686 75 693T93 700H202Q213 700 220 693T227 675V268Q227 194 262 158T360 122Q422 122 457 158T492 268V675Q492 686 499 693T517 700H627Q637 700 644 693T651
675V267Q651 172 615 111T514 20T360 -10ZM431 750Q421 750 415 756T409 773V855Q409 865 415 871T431 878H513Q523 878 529 872T536 855V773Q536 762 530 756T513 750H431ZM204 750Q194 750 188 756T182 773V855Q182 865 188 871T204 878H286Q296 878 302 872T309
855V773Q309 762 303 756T286 750H204Z" />
<glyph unicode="&#xdd;" horiz-adv-x="672" d="M281 0Q270 0 263 7T256 25V245L22 668Q21 671 20 673T19 679Q19 687 25 693T40 700H146Q160 700 168 693T179 680L336 405L493 680Q496 686 504 693T526 700H632Q640 700 646 694T653 679Q653 676 652 674T650 668L416
245V25Q416 14 409 7T391 0H281ZM283 750Q267 750 267 766Q267 774 272 779L357 882Q366 894 373 897T394 901H517Q536 901 536 881Q536 874 531 869L402 764Q394 757 386 754T365 750H283Z" />
<glyph unicode="&#xde;" horiz-adv-x="670" d="M99 0Q88 0 81 7T74 25V675Q74 686 81 693T99 700H213Q224 700 231 693T238 675V580H370Q452 580 512 555T605 479T639 353Q639 277 606 228T512 155T370 131H238V25Q238 14 231 7T213 0H99ZM235 255H367Q418 255
446 280T475 354Q475 398 450 426T367 455H235V255Z" />
<glyph unicode="&#xdf;" horiz-adv-x="626" d="M88 0Q77 0 70 7T63 25V476Q63 541 89 593T170 678T313 710Q401 710 455 681T533 608T558 515Q558 480 548 454T521 408T484 376Q521 362 543 338T576 281T587 209Q587 173 573 137T529 69T452 19T338 0H284Q271
0 264 7T256 25V90Q256 100 263 107T284 114H317Q371 114 401 143T431 215Q431 258 402 287T315 316H282Q269 316 263 323T256 340V397Q256 408 261 415T282 422H310Q361 423 387 445T414 508Q414 546 387 570T313 595Q267 595 240 567T212 478V25Q212 14 205 7T187
0H88Z" />
<glyph unicode="&#xe0;" horiz-adv-x="580" d="M216 -10Q163 -10 121 10T54 66T29 144Q29 215 86 256T238 312L369 331V349Q369 388 351 409T288 430Q255 430 235 417T204 383Q196 370 181 370H86Q75 370 69 376T64 392Q64 409 77 432T117 477T186 515T289 530Q352
530 397 515T469 473T509 411T522 334V25Q522 14 515 7T497 0H399Q389 0 382 7T375 25V62Q362 43 340 27T288 0T216 -10ZM256 94Q289 94 315 108T356 151T371 224V241L278 226Q224 217 199 199T174 155Q174 136 185 122T216 101T256 94ZM267 595Q254 595 247 598T231
609L102 714Q97 719 97 726Q97 746 116 746H232Q245 746 252 743T269 727L353 624Q358 619 358 611Q358 595 342 595H267Z" />
<glyph unicode="&#xe1;" horiz-adv-x="580" d="M216 -10Q163 -10 121 10T54 66T29 144Q29 215 86 256T238 312L369 331V349Q369 388 351 409T288 430Q255 430 235 417T204 383Q196 370 181 370H86Q75 370 69 376T64 392Q64 409 77 432T117 477T186 515T289 530Q352
530 397 515T469 473T509 411T522 334V25Q522 14 515 7T497 0H399Q389 0 382 7T375 25V62Q362 43 340 27T288 0T216 -10ZM256 94Q289 94 315 108T356 151T371 224V241L278 226Q224 217 199 199T174 155Q174 136 185 122T216 101T256 94ZM238 595Q222 595 222 611Q222
619 227 624L312 727Q321 739 328 742T349 746H464Q483 746 483 726Q483 719 478 714L349 609Q341 602 334 599T313 595H238Z" />
<glyph unicode="&#xe2;" horiz-adv-x="580" d="M216 -10Q163 -10 121 10T54 66T29 144Q29 215 86 256T238 312L369 331V349Q369 388 351 409T288 430Q255 430 235 417T204 383Q196 370 181 370H86Q75 370 69 376T64 392Q64 409 77 432T117 477T186 515T289 530Q352
530 397 515T469 473T509 411T522 334V25Q522 14 515 7T497 0H399Q389 0 382 7T375 25V62Q362 43 340 27T288 0T216 -10ZM256 94Q289 94 315 108T356 151T371 224V241L278 226Q224 217 199 199T174 155Q174 136 185 122T216 101T256 94ZM127 595Q112 595 112 609Q112
617 120 625L220 729Q230 740 237 743T255 746H321Q330 746 337 743T355 729L455 625Q464 617 464 609Q464 595 449 595H407Q399 595 390 596T374 602L288 653L202 602Q195 598 186 597T169 595H127Z" />
<glyph unicode="&#xe3;" horiz-adv-x="580" d="M216 -10Q163 -10 121 10T54 66T29 144Q29 215 86 256T238 312L369 331V349Q369 388 351 409T288 430Q255 430 235 417T204 383Q196 370 181 370H86Q75 370 69 376T64 392Q64 409 77 432T117 477T186 515T289 530Q352
530 397 515T469 473T509 411T522 334V25Q522 14 515 7T497 0H399Q389 0 382 7T375 25V62Q362 43 340 27T288 0T216 -10ZM256 94Q289 94 315 108T356 151T371 224V241L278 226Q224 217 199 199T174 155Q174 136 185 122T216 101T256 94ZM345 590Q318 590 302 599T272
616T241 625Q228 625 222 618T211 603T195 595H142Q135 595 130 600T125 612Q125 628 130 647T148 685T181 716T229 728Q256 728 273 720T303 702T334 693Q347 693 352 701T363 716T380 724H432Q441 724 445 719T450 706Q450 690 444 671T426 633T393 602T345 590Z"
/>
<glyph unicode="&#xe4;" horiz-adv-x="580" d="M216 -10Q163 -10 121 10T54 66T29 144Q29 215 86 256T238 312L369 331V349Q369 388 351 409T288 430Q255 430 235 417T204 383Q196 370 181 370H86Q75 370 69 376T64 392Q64 409 77 432T117 477T186 515T289 530Q352
530 397 515T469 473T509 411T522 334V25Q522 14 515 7T497 0H399Q389 0 382 7T375 25V62Q362 43 340 27T288 0T216 -10ZM256 94Q289 94 315 108T356 151T371 224V241L278 226Q224 217 199 199T174 155Q174 136 185 122T216 101T256 94ZM345 611Q335 611 329 617T323
633V715Q323 725 329 731T345 738H427Q437 738 443 732T450 715V633Q450 623 444 617T427 611H345ZM148 611Q138 611 132 617T126 633V715Q126 725 132 731T148 738H230Q240 738 246 732T253 715V633Q253 623 247 617T230 611H148Z" />
<glyph unicode="&#xe5;" horiz-adv-x="580" d="M216 -10Q163 -10 121 10T54 66T29 144Q29 215 86 256T238 312L369 331V349Q369 388 351 409T288 430Q255 430 235 417T204 383Q196 370 181 370H86Q75 370 69 376T64 392Q64 409 77 432T117 477T186 515T289 530Q352
530 397 515T469 473T509 411T522 334V25Q522 14 515 7T497 0H399Q389 0 382 7T375 25V62Q362 43 340 27T288 0T216 -10ZM256 94Q289 94 315 108T356 151T371 224V241L278 226Q224 217 199 199T174 155Q174 136 185 122T216 101T256 94ZM288 590Q251 590 225 614T198
675Q198 712 224 736T288 761Q325 761 351 737T378 675Q378 638 352 614T288 590ZM288 645Q301 645 309 653T318 675Q318 688 310 696T288 705Q275 705 267 697T258 675Q258 662 266 654T288 645Z" />
<glyph unicode="&#xe6;" horiz-adv-x="909" d="M227 -10Q166 -10 122 10T54 66T30 144Q30 215 87 257T238 313L370 333V350Q370 389 352 409T288 430Q261 430 244 421T215 401T191 380Q189 375 186 373T178 370H86Q76 370 70 376T64 392Q64 409 76 432T116 477T186
515T289 530Q355 530 395 513T456 468Q485 496 525 513T620 530Q692 530 740 507T816 444T857 359T870 265V242Q870 232 863 225T845 218H524V210Q525 168 538 142T573 105T619 93Q642 93 663 103T701 134Q710 144 715 146T733 149H835Q857 149 857 128Q857 113
843 90T799 44T725 6T620 -10Q553 -10 505 13T428 75Q390 28 338 9T227 -10ZM257 94Q289 94 315 108T356 151T371 224V241L278 226Q225 217 200 199T175 155Q175 136 186 122T216 101T257 94ZM524 309H715V313Q715 366 692 398T620 430Q594 430 573 418T539 379T524
313V309Z" />
<glyph unicode="&#xe7;" horiz-adv-x="580" d="M293 -220Q266 -220 245 -211T214 -190T214 -169L232 -153Q241 -145 247 -148T264 -158T293 -164Q309 -164 319 -155T329 -132Q329 -119 319 -110T293 -101Q281 -101 271 -104T253 -109T237 -103L218 -84Q212 -78
213 -71T219 -52L240 -6Q153 8 100 66T43 219Q42 235 42 259T43 300Q46 373 77 424T165 503T294 530Q361 530 408 512T485 465T529 407T545 353Q546 343 539 336T521 328H414Q404 328 399 333T388 349Q374 384 352 399T297 414Q252 414 226 385T198 295Q197 256
198 224Q201 162 226 134T297 106Q332 106 353 121T388 171Q392 181 398 186T414 192H521Q531 192 538 185T545 167Q544 146 530 116T488 58T412 10T298 -10L278 -51Q284 -48 294 -47T311 -45Q347 -45 368 -69T390 -131Q390 -169 365 -194T293 -220Z" />
<glyph unicode="&#xe8;" horiz-adv-x="585" d="M295 -10Q180 -10 113 54T41 240Q41 248 41 261T41 283Q45 360 76 415T163 500T294 530Q378 530 434 496T519 402T548 265V242Q548 232 541 225T523 218H196Q196 217 196 215T196 210Q197 178 208 152T241 109T293
93Q318 93 334 100T360 117T376 134Q385 144 390 146T408 149H512Q522 149 528 144T534 128Q533 112 518 89T472 43T398 5T295 -10ZM196 309H392V311Q392 347 381 373T347 415T294 430Q263 430 241 415T208 374T196 311V309ZM273 595Q260 595 253 598T237 609L108
714Q103 719 103 726Q103 746 122 746H238Q251 746 258 743T275 727L359 624Q364 619 364 611Q364 595 348 595H273Z" />
<glyph unicode="&#xe9;" horiz-adv-x="585" d="M295 -10Q180 -10 113 54T41 240Q41 248 41 261T41 283Q45 360 76 415T163 500T294 530Q378 530 434 496T519 402T548 265V242Q548 232 541 225T523 218H196Q196 217 196 215T196 210Q197 178 208 152T241 109T293
93Q318 93 334 100T360 117T376 134Q385 144 390 146T408 149H512Q522 149 528 144T534 128Q533 112 518 89T472 43T398 5T295 -10ZM196 309H392V311Q392 347 381 373T347 415T294 430Q263 430 241 415T208 374T196 311V309ZM243 595Q227 595 227 611Q227 619 232
624L317 727Q326 739 333 742T354 746H469Q488 746 488 726Q488 719 483 714L354 609Q346 602 339 599T318 595H243Z" />
<glyph unicode="&#xea;" horiz-adv-x="585" d="M295 -10Q180 -10 113 54T41 240Q41 248 41 261T41 283Q45 360 76 415T163 500T294 530Q378 530 434 496T519 402T548 265V242Q548 232 541 225T523 218H196Q196 217 196 215T196 210Q197 178 208 152T241 109T293
93Q318 93 334 100T360 117T376 134Q385 144 390 146T408 149H512Q522 149 528 144T534 128Q533 112 518 89T472 43T398 5T295 -10ZM196 309H392V311Q392 347 381 373T347 415T294 430Q263 430 241 415T208 374T196 311V309ZM133 595Q118 595 118 609Q118 617 126
625L226 729Q236 740 243 743T261 746H327Q336 746 343 743T361 729L461 625Q470 617 470 609Q470 595 455 595H413Q405 595 396 596T380 602L294 653L208 602Q201 598 192 597T175 595H133Z" />
<glyph unicode="&#xeb;" horiz-adv-x="585" d="M295 -10Q180 -10 113 54T41 240Q41 248 41 261T41 283Q45 360 76 415T163 500T294 530Q378 530 434 496T519 402T548 265V242Q548 232 541 225T523 218H196Q196 217 196 215T196 210Q197 178 208 152T241 109T293
93Q318 93 334 100T360 117T376 134Q385 144 390 146T408 149H512Q522 149 528 144T534 128Q533 112 518 89T472 43T398 5T295 -10ZM196 309H392V311Q392 347 381 373T347 415T294 430Q263 430 241 415T208 374T196 311V309ZM350 611Q340 611 334 617T328 633V715Q328
725 334 731T350 738H432Q442 738 448 732T455 715V633Q455 623 449 617T432 611H350ZM153 611Q143 611 137 617T131 633V715Q131 725 137 731T153 738H235Q245 738 251 732T258 715V633Q258 623 252 617T235 611H153Z" />
<glyph unicode="&#xec;" horiz-adv-x="274" d="M87 0Q77 0 70 7T63 25V495Q63 506 70 513T87 520H187Q198 520 205 513T212 495V25Q212 14 205 7T187 0H87ZM373 595Q360 595 353 598T337 609L208 714Q203 719 203 726Q203 746 222 746H338Q351 746 358 743T375
727L459 624Q464 619 464 611Q464 595 448 595H373Z" />
<glyph unicode="&#xed;" horiz-adv-x="274" d="M87 0Q77 0 70 7T63 25V495Q63 506 70 513T87 520H187Q198 520 205 513T212 495V25Q212 14 205 7T187 0H87ZM87 595Q71 595 71 611Q71 619 76 624L161 727Q170 739 177 742T198 746H313Q332 746 332 726Q332 719
327 714L198 609Q190 602 183 599T162 595H87Z" />
<glyph unicode="&#xee;" horiz-adv-x="274" d="M87 0Q77 0 70 7T63 25V495Q63 506 70 513T87 520H187Q198 520 205 513T212 495V25Q212 14 205 7T187 0H87ZM233 595Q218 595 218 609Q218 617 226 625L326 729Q336 740 343 743T361 746H427Q436 746 443 743T461
729L561 625Q570 617 570 609Q570 595 555 595H513Q505 595 496 596T480 602L394 653L308 602Q301 598 292 597T275 595H233Z" />
<glyph unicode="&#xef;" horiz-adv-x="274" d="M87 0Q77 0 70 7T63 25V495Q63 506 70 513T87 520H187Q198 520 205 513T212 495V25Q212 14 205 7T187 0H87ZM450 611Q440 611 434 617T428 633V715Q428 725 434 731T450 738H532Q542 738 548 732T555 715V633Q555
623 549 617T532 611H450ZM253 611Q243 611 237 617T231 633V715Q231 725 237 731T253 738H335Q345 738 351 732T358 715V633Q358 623 352 617T335 611H253Z" />
<glyph unicode="&#xf0;" horiz-adv-x="595" d="M295 -10Q215 -10 158 18T71 101T40 230Q40 306 71 359T160 441T295 470Q317 470 334 465T367 451Q349 499 319 538L212 497Q205 494 200 494Q192 494 186 499T180 513V537Q180 549 185 555T202 566L270 592Q253
609 233 626T192 659Q183 665 180 670T177 679Q177 688 183 694T198 700H304Q320 700 330 696T348 687Q362 676 375 665T399 642L490 677Q498 680 502 680Q511 680 516 675T522 661V637Q522 625 517 619T500 608L449 588Q494 532 520 454T550 261Q551 253 551 244T550
227Q548 154 518 101T431 19T295 -10ZM295 100Q329 100 351 115T384 156T395 215Q396 223 396 229T395 244Q395 277 385 303T353 344T295 360Q260 360 238 345T206 303T195 244Q194 236 194 230T195 215Q196 183 206 157T239 115T295 100Z" />
<glyph unicode="&#xf1;" horiz-adv-x="633" d="M87 0Q77 0 70 7T63 25V495Q63 506 70 513T87 520H185Q196 520 203 513T210 495V456Q236 488 277 509T377 530Q436 530 480 504T550 427T576 304V25Q576 14 569 7T551 0H445Q434 0 427 7T420 25V298Q420 351 395
380T320 410Q273 410 245 381T217 298V25Q217 14 210 7T193 0H87ZM376 590Q349 590 333 599T303 616T272 625Q259 625 253 618T242 603T226 595H173Q166 595 161 600T156 612Q156 628 161 647T179 685T212 716T260 728Q287 728 304 720T334 702T365 693Q378 693
383 701T394 716T411 724H463Q472 724 476 719T481 706Q481 690 475 671T457 633T424 602T376 590Z" />
<glyph unicode="&#xf2;" horiz-adv-x="601" d="M301 -10Q218 -10 162 17T77 96T44 215Q43 235 43 260T44 305Q47 374 78 424T165 502T301 530Q380 530 436 503T523 425T557 305Q559 286 559 261T557 215Q554 147 525 96T439 18T301 -10ZM301 100Q350 100 375 130T402
220Q403 235 403 260T402 300Q400 358 375 389T301 420Q252 420 227 389T199 300Q198 285 198 260T199 220Q201 161 226 131T301 100ZM280 595Q267 595 260 598T244 609L115 714Q110 719 110 726Q110 746 129 746H245Q258 746 265 743T282 727L366 624Q371 619
371 611Q371 595 355 595H280Z" />
<glyph unicode="&#xf3;" horiz-adv-x="601" d="M301 -10Q218 -10 162 17T77 96T44 215Q43 235 43 260T44 305Q47 374 78 424T165 502T301 530Q380 530 436 503T523 425T557 305Q559 286 559 261T557 215Q554 147 525 96T439 18T301 -10ZM301 100Q350 100 375 130T402
220Q403 235 403 260T402 300Q400 358 375 389T301 420Q252 420 227 389T199 300Q198 285 198 260T199 220Q201 161 226 131T301 100ZM250 595Q234 595 234 611Q234 619 239 624L324 727Q333 739 340 742T361 746H476Q495 746 495 726Q495 719 490 714L361 609Q353
602 346 599T325 595H250Z" />
<glyph unicode="&#xf4;" horiz-adv-x="601" d="M301 -10Q218 -10 162 17T77 96T44 215Q43 235 43 260T44 305Q47 374 78 424T165 502T301 530Q380 530 436 503T523 425T557 305Q559 286 559 261T557 215Q554 147 525 96T439 18T301 -10ZM301 100Q350 100 375 130T402
220Q403 235 403 260T402 300Q400 358 375 389T301 420Q252 420 227 389T199 300Q198 285 198 260T199 220Q201 161 226 131T301 100ZM140 595Q125 595 125 609Q125 617 133 625L233 729Q243 740 250 743T268 746H334Q343 746 350 743T368 729L468 625Q477 617
477 609Q477 595 462 595H420Q412 595 403 596T387 602L301 653L215 602Q208 598 199 597T182 595H140Z" />
<glyph unicode="&#xf5;" horiz-adv-x="601" d="M301 -10Q218 -10 162 17T77 96T44 215Q43 235 43 260T44 305Q47 374 78 424T165 502T301 530Q380 530 436 503T523 425T557 305Q559 286 559 261T557 215Q554 147 525 96T439 18T301 -10ZM301 100Q350 100 375 130T402
220Q403 235 403 260T402 300Q400 358 375 389T301 420Q252 420 227 389T199 300Q198 285 198 260T199 220Q201 161 226 131T301 100ZM358 590Q331 590 315 599T285 616T254 625Q241 625 235 618T224 603T208 595H155Q148 595 143 600T138 612Q138 628 143 647T161
685T194 716T242 728Q269 728 286 720T316 702T347 693Q360 693 365 701T376 716T393 724H445Q454 724 458 719T463 706Q463 690 457 671T439 633T406 602T358 590Z" />
<glyph unicode="&#xf6;" horiz-adv-x="601" d="M301 -10Q218 -10 162 17T77 96T44 215Q43 235 43 260T44 305Q47 374 78 424T165 502T301 530Q380 530 436 503T523 425T557 305Q559 286 559 261T557 215Q554 147 525 96T439 18T301 -10ZM301 100Q350 100 375 130T402
220Q403 235 403 260T402 300Q400 358 375 389T301 420Q252 420 227 389T199 300Q198 285 198 260T199 220Q201 161 226 131T301 100ZM357 611Q347 611 341 617T335 633V715Q335 725 341 731T357 738H439Q449 738 455 732T462 715V633Q462 623 456 617T439 611H357ZM160
611Q150 611 144 617T138 633V715Q138 725 144 731T160 738H242Q252 738 258 732T265 715V633Q265 623 259 617T242 611H160Z" />
<glyph unicode="&#xf7;" horiz-adv-x="540" d="M75 242Q64 242 57 249T50 267V333Q50 344 57 351T75 358H465Q476 358 483 351T490 333V267Q490 256 483 249T465 242H75ZM226 51Q216 51 209 58T202 75V157Q202 168 209 175T226 182H313Q324 182 331 175T338 157V75Q338
65 331 58T313 51H226ZM226 418Q216 418 209 425T202 443V525Q202 535 209 542T226 550H313Q324 550 331 543T338 525V443Q338 432 331 425T313 418H226Z" />
<glyph unicode="&#xf8;" horiz-adv-x="601" d="M301 -10Q218 -10 162 17T77 96T44 215Q43 235 43 260T44 305Q47 374 78 424T165 502T301 530Q380 530 436 503T523 425T557 305Q559 286 559 261T557 215Q554 147 525 96T439 18T301 -10ZM301 100Q350 100 375 130T402
220Q403 235 403 260T402 300Q400 358 375 389T301 420Q252 420 227 389T199 300Q198 285 198 260T199 220Q201 161 226 131T301 100ZM67 -28Q59 -28 53 -22T47 -8Q47 -5 48 -2T52 6L481 532Q484 536 489 541T505 547H533Q541 547 547 541T553 527Q553 526 553
522T548 513L119 -13Q116 -17 111 -22T96 -28H67Z" />
<glyph unicode="&#xf9;" horiz-adv-x="631" d="M254 -10Q196 -10 152 16T83 93T58 216V495Q58 506 65 513T82 520H188Q199 520 206 513T213 495V222Q213 110 311 110Q358 110 385 139T413 222V495Q413 506 420 513T438 520H544Q554 520 561 513T568 495V25Q568
14 561 7T544 0H446Q435 0 428 7T421 25V64Q395 28 354 9T254 -10ZM293 595Q280 595 273 598T257 609L128 714Q123 719 123 726Q123 746 142 746H258Q271 746 278 743T295 727L379 624Q384 619 384 611Q384 595 368 595H293Z" />
<glyph unicode="&#xfa;" horiz-adv-x="631" d="M254 -10Q196 -10 152 16T83 93T58 216V495Q58 506 65 513T82 520H188Q199 520 206 513T213 495V222Q213 110 311 110Q358 110 385 139T413 222V495Q413 506 420 513T438 520H544Q554 520 561 513T568 495V25Q568
14 561 7T544 0H446Q435 0 428 7T421 25V64Q395 28 354 9T254 -10ZM263 595Q247 595 247 611Q247 619 252 624L337 727Q346 739 353 742T374 746H489Q508 746 508 726Q508 719 503 714L374 609Q366 602 359 599T338 595H263Z" />
<glyph unicode="&#xfb;" horiz-adv-x="631" d="M254 -10Q196 -10 152 16T83 93T58 216V495Q58 506 65 513T82 520H188Q199 520 206 513T213 495V222Q213 110 311 110Q358 110 385 139T413 222V495Q413 506 420 513T438 520H544Q554 520 561 513T568 495V25Q568
14 561 7T544 0H446Q435 0 428 7T421 25V64Q395 28 354 9T254 -10ZM153 595Q138 595 138 609Q138 617 146 625L246 729Q256 740 263 743T281 746H347Q356 746 363 743T381 729L481 625Q490 617 490 609Q490 595 475 595H433Q425 595 416 596T400 602L314 653L228
602Q221 598 212 597T195 595H153Z" />
<glyph unicode="&#xfc;" horiz-adv-x="631" d="M254 -10Q196 -10 152 16T83 93T58 216V495Q58 506 65 513T82 520H188Q199 520 206 513T213 495V222Q213 110 311 110Q358 110 385 139T413 222V495Q413 506 420 513T438 520H544Q554 520 561 513T568 495V25Q568
14 561 7T544 0H446Q435 0 428 7T421 25V64Q395 28 354 9T254 -10ZM370 611Q360 611 354 617T348 633V715Q348 725 354 731T370 738H452Q462 738 468 732T475 715V633Q475 623 469 617T452 611H370ZM173 611Q163 611 157 617T151 633V715Q151 725 157 731T173 738H255Q265
738 271 732T278 715V633Q278 623 272 617T255 611H173Z" />
<glyph unicode="&#xfd;" horiz-adv-x="585" d="M158 -190Q150 -190 144 -184T137 -169Q137 -167 138 -164T141 -155L219 32L27 485Q24 493 24 498Q25 507 31 513T46 520H143Q156 520 162 514T171 500L295 190L422 500Q426 508 432 514T451 520H546Q555 520 561
514T568 499Q568 494 564 485L281 -170Q278 -178 272 -184T252 -190H158ZM243 595Q227 595 227 611Q227 619 232 624L317 727Q326 739 333 742T354 746H469Q488 746 488 726Q488 719 483 714L354 609Q346 602 339 599T318 595H243Z" />
<glyph unicode="&#xfe;" horiz-adv-x="623" d="M88 -190Q78 -190 71 -183T64 -165V685Q64 696 71 703T88 710H191Q202 710 209 703T216 685V462Q240 494 274 512T366 530Q417 530 455 514T521 467T562 393T579 296Q580 277 580 260T579 223Q577 172 563 129T522
55T456 7T366 -10Q314 -10 277 8T216 59V-165Q216 -176 209 -183T191 -190H88ZM320 110Q359 110 380 126T412 170T424 229Q426 260 424 291Q422 323 412 350T381 393T320 410Q283 410 261 393T228 350T216 294Q215 276 215 257T216 219Q217 191 228 167T262 126T320
110Z" />
<glyph unicode="&#xff;" horiz-adv-x="585" d="M158 -190Q150 -190 144 -184T137 -169Q137 -167 138 -164T141 -155L219 32L27 485Q24 493 24 498Q25 507 31 513T46 520H143Q156 520 162 514T171 500L295 190L422 500Q426 508 432 514T451 520H546Q555 520 561
514T568 499Q568 494 564 485L281 -170Q278 -178 272 -184T252 -190H158ZM350 611Q340 611 334 617T328 633V715Q328 725 334 731T350 738H432Q442 738 448 732T455 715V633Q455 623 449 617T432 611H350ZM153 611Q143 611 137 617T131 633V715Q131 725 137 731T153
738H235Q245 738 251 732T258 715V633Q258 623 252 617T235 611H153Z" />
<glyph unicode="&#x2013;" horiz-adv-x="569" d="M84 236Q74 236 67 243T60 260V340Q60 350 67 357T84 364H485Q495 364 502 357T509 340V260Q509 250 502 243T485 236H84Z" />
<glyph unicode="&#x2014;" horiz-adv-x="759" d="M84 236Q74 236 67 243T60 260V340Q60 350 67 357T84 364H675Q685 364 692 357T699 340V260Q699 250 692 243T675 236H84Z" />
<glyph unicode="&#x2018;" horiz-adv-x="261" d="M55 473Q47 473 42 478T36 492Q36 498 39 504L109 683Q113 693 120 701T143 710H203Q212 710 217 704T221 687L193 506Q192 493 184 483T159 473H55Z" />
<glyph unicode="&#x2019;" horiz-adv-x="255" d="M64 473Q55 473 50 479T46 495L74 677Q76 690 84 700T108 710H212Q220 710 225 704T231 691Q231 684 228 679L158 499Q154 489 147 481T124 473H64Z" />
<glyph unicode="&#x201a;" horiz-adv-x="270" d="M56 -75Q47 -75 42 -69T37 -52L66 129Q68 142 76 152T100 162H204Q212 162 217 157T222 143Q222 137 220 131L150 -48Q146 -58 139 -66T116 -75H56Z" />
<glyph unicode="&#x201c;" horiz-adv-x="466" d="M260 473Q252 473 247 478T241 492Q241 498 244 504L313 683Q318 693 325 701T348 710H408Q417 710 422 704T426 687L398 506Q396 493 388 483T364 473H260ZM55 473Q47 473 42 478T36 492Q36 498 39 504L109 683Q113
693 120 701T143 710H203Q212 710 217 704T221 687L193 506Q192 493 184 483T159 473H55Z" />
<glyph unicode="&#x201d;" horiz-adv-x="460" d="M268 473Q260 473 255 479T250 495L279 677Q281 690 289 700T313 710H417Q425 710 430 704T435 691Q435 684 433 679L363 499Q359 489 352 481T328 473H268ZM64 473Q55 473 50 479T46 495L74 677Q76 690 84 700T108
710H212Q220 710 225 704T231 691Q231 684 228 679L158 499Q154 489 147 481T124 473H64Z" />
<glyph unicode="&#x201e;" horiz-adv-x="475" d="M260 -75Q252 -75 247 -69T242 -53L270 129Q272 142 280 152T305 162H409Q417 162 422 157T427 143Q427 137 425 131L355 -48Q351 -58 344 -66T320 -75H260ZM56 -75Q47 -75 42 -69T37 -52L66 129Q68 142 76 152T100
162H204Q212 162 217 157T222 143Q222 137 220 131L150 -48Q146 -58 139 -66T116 -75H56Z" />
<glyph unicode="&#x2022;" horiz-adv-x="384" d="M192 205Q159 205 132 221T88 265T72 326Q72 359 88 386T131 430T192 446Q226 446 253 430T296 387T313 326Q313 293 297 266T253 222T192 205Z" />
<glyph unicode="&#x2039;" horiz-adv-x="348" d="M271 71Q267 71 262 73T252 80L49 277Q41 284 38 292T34 308V350Q34 358 37 366T49 381L252 578Q257 583 262 585T271 587Q280 587 286 581T292 565V485Q292 470 288 462T274 444L156 329L274 214Q284 204 288
196T292 173V93Q292 84 286 78T271 71Z" />
<glyph unicode="&#x203a;" horiz-adv-x="348" d="M77 71Q68 71 62 77T56 93V173Q56 188 60 196T74 214L192 329L74 444Q64 454 60 462T56 485V565Q56 574 62 580T77 587Q80 587 85 585T96 578L299 381Q307 374 310 366T314 350V308Q314 300 311 292T299 277L96
80Q91 75 86 73T77 71Z" />
</font>
</defs>
</svg>
