<?xml version="1.0" standalone="no"?>
<!DOCTYPE svg PUBLIC "-//W3C//DTD SVG 20010904//EN"
 "http://www.w3.org/TR/2001/REC-SVG-20010904/DTD/svg10.dtd">
<svg version="1.0" xmlns="http://www.w3.org/2000/svg"
 width="260.000000pt" height="260.000000pt" viewBox="0 0 260.000000 260.000000"
 preserveAspectRatio="xMidYMid meet">
<metadata>
Created by potrace 1.14, written by Peter Selinger 2001-2017
</metadata>
<g transform="translate(0.000000,260.000000) scale(0.100000,-0.100000)"
fill="#000000" stroke="none">
<path d="M1215 2457 c-129 -43 -212 -145 -223 -272 -18 -229 198 -394 418
-320 78 26 159 110 185 191 50 156 -17 315 -162 385 -55 27 -161 34 -218 16z"/>
<path d="M785 1875 c-59 -17 -98 -40 -142 -82 -84 -81 -115 -216 -74 -324 29
-75 88 -141 159 -176 77 -38 192 -40 265 -4 217 105 244 401 50 539 -70 50
-181 70 -258 47z"/>
<path d="M1667 1878 c-87 -16 -175 -87 -218 -175 -31 -66 -33 -187 -2 -254 30
-67 89 -127 153 -157 78 -37 194 -37 264 -2 171 87 232 289 135 447 -70 113
-197 167 -332 141z"/>
<path d="M550 914 c0 -326 2 -368 20 -438 27 -106 82 -206 154 -280 76 -79
152 -128 253 -163 74 -26 89 -27 293 -30 189 -3 225 -1 293 17 180 45 328 163
407 323 65 132 69 163 70 572 l0 360 -153 -153 c-84 -83 -155 -152 -159 -152
-4 0 -75 68 -158 150 -83 83 -152 150 -153 150 -1 0 -2 -154 -2 -343 -1 -316
-2 -344 -19 -370 -21 -32 -64 -57 -96 -57 -34 0 -90 30 -108 58 -14 22 -17 68
-18 366 -1 188 -2 342 -3 344 0 1 -69 -65 -151 -148 -83 -82 -154 -150 -158
-150 -4 0 -75 69 -159 152 l-153 153 0 -361z"/>
</g>
</svg>
